<svg xmlns="http://www.w3.org/2000/svg" id="svg5794" class="svg1" viewBox="0 0 951.109 555.307" height="685.14" width="1157.3"><path d="M1.4 11.684l8.135 14.173h16.271l8.136-14.173-8.136-14.173H9.536L1.4 11.684zM25.806 25.857l8.135 14.173h16.271l8.136-14.173-8.136-14.173h-16.27l-8.136 14.173zM50.213 11.684l8.135 14.173H74.62l8.136-14.173-8.136-14.173H58.35l-8.136 14.173z" stroke-width="2.8" stroke-opacity=".075" stroke="#000" fill="#fff" opacity=".85"/><path d="M74.619 25.857l8.135 14.173h16.271l8.136-14.173-8.136-14.173h-16.27l-8.136 14.173z" stroke-width="2.8" stroke-opacity=".075" stroke="#000" fill="#fff" opacity=".85"/><path d="M99.025 11.684l8.135 14.173h16.271l8.136-14.173-8.136-14.173h-16.27l-8.136 14.173z" stroke-width="2.8" stroke-opacity=".075" stroke="#000" fill="#fff" opacity=".85"/><path d="M123.43 25.857l8.135 14.173h16.271l8.136-14.173-8.136-14.173h-16.27l-8.136 14.173zM147.84 11.684l8.135 14.173h16.271l8.136-14.173-8.136-14.173h-16.27l-8.136 14.173z" stroke-width="2.8" stroke-opacity=".075" stroke="#000" fill="#fff" opacity=".85"/><path d="M172.24 25.857l8.135 14.173h16.271l8.136-14.173-8.136-14.173h-16.27l-8.136 14.173zM196.65 11.684l8.135 14.173h16.271l8.136-14.173-8.136-14.173h-16.27l-8.136 14.173zM221.06 25.857l8.135 14.173h16.271l8.136-14.173-8.136-14.173h-16.27l-8.136 14.173z" stroke-width="2.8" stroke-opacity=".075" stroke="#000" fill="#fff" opacity=".85"/><path d="M245.46 11.684l8.135 14.173h16.271l8.136-14.173-8.136-14.173h-16.27l-8.136 14.173zM269.87 25.857l8.135 14.173h16.271l8.136-14.173-8.136-14.173h-16.27l-8.136 14.173zM294.28 11.684l8.135 14.173h16.271l8.136-14.173-8.136-14.173h-16.27l-8.136 14.173z" stroke-width="2.8" stroke-opacity=".075" stroke="#000" fill="#fff" opacity=".85"/><path d="M318.68 25.857l8.135 14.173h16.271l8.136-14.173-8.136-14.173h-16.27l-8.136 14.173zM343.09 11.684l8.135 14.173h16.271l8.136-14.173-8.136-14.173h-16.27l-8.136 14.173zM367.5 25.857l8.135 14.173h16.271l8.136-14.173-8.136-14.173h-16.27L367.5 25.857z" stroke-width="2.8" stroke-opacity=".075" stroke="#000" fill="#fff" opacity=".85"/><path d="M391.9 11.684l8.135 14.173h16.271l8.136-14.173-8.136-14.173h-16.27L391.9 11.684zM416.31 25.857l8.135 14.173h16.271l8.136-14.173-8.136-14.173h-16.27l-8.136 14.173zM440.72 11.684l8.135 14.173h16.271l8.136-14.173-8.136-14.173h-16.27l-8.136 14.173z" stroke-width="2.8" stroke-opacity=".075" stroke="#000" fill="#fff" opacity=".85"/><path d="M465.12 25.857l8.135 14.173h16.271l8.136-14.173-8.136-14.173h-16.27l-8.136 14.173zM489.53 11.684l8.135 14.173h16.271l8.136-14.173-8.136-14.173h-16.27l-8.136 14.173zM513.94 25.857l8.135 14.173h16.271l8.136-14.173-8.136-14.173h-16.27l-8.136 14.173z" stroke-width="2.8" stroke-opacity=".075" stroke="#000" fill="#fff" opacity=".85"/><path d="M538.34 11.684l8.135 14.173h16.271l8.136-14.173-8.136-14.173h-16.27l-8.136 14.173zM562.75 25.857l8.135 14.173h16.271l8.136-14.173-8.136-14.173h-16.27l-8.136 14.173zM587.16 11.684l8.135 14.173h16.271l8.136-14.173-8.136-14.173h-16.27l-8.136 14.173z" stroke-width="2.8" stroke-opacity=".075" stroke="#000" fill="#fff" opacity=".85"/><path d="M611.56 25.857l8.135 14.173h16.271l8.136-14.173-8.136-14.173h-16.27l-8.136 14.173zM635.97 11.684l8.135 14.173h16.271l8.136-14.173-8.136-14.173h-16.27l-8.136 14.173z" stroke-width="2.8" stroke-opacity=".075" stroke="#000" fill="#fff" opacity=".85"/><path d="M660.37 25.857l8.135 14.173h16.271l8.136-14.173-8.136-14.173h-16.27l-8.136 14.173zM684.78 11.684l8.135 14.173h16.271l8.136-14.173-8.136-14.173h-16.27l-8.136 14.173zM709.19 25.857l8.135 14.173h16.271l8.136-14.173-8.136-14.173h-16.27l-8.136 14.173z" stroke-width="2.8" stroke-opacity=".075" stroke="#000" fill="#fff" opacity=".85"/><path d="M733.59 11.684l8.135 14.173h16.271l8.136-14.173-8.136-14.173h-16.27l-8.136 14.173zM758 25.857l8.135 14.173h16.271l8.136-14.173-8.136-14.173h-16.27L758 25.857zM782.41 11.684l8.135 14.173h16.271l8.136-14.173-8.136-14.173h-16.27l-8.136 14.173z" stroke-width="2.8" stroke-opacity=".075" stroke="#000" fill="#fff" opacity=".85"/><path d="M806.81 25.857l8.135 14.173h16.271l8.136-14.173-8.136-14.173h-16.27l-8.136 14.173zM831.22 11.684l8.135 14.173h16.271l8.136-14.173-8.136-14.173h-16.27l-8.136 14.173zM855.63 25.857l8.135 14.173h16.271l8.136-14.173-8.136-14.173h-16.27l-8.136 14.173z" stroke-width="2.8" stroke-opacity=".075" stroke="#000" fill="#fff" opacity=".85"/><path d="M880.03 11.684l8.135 14.173h16.271l8.136-14.173-8.136-14.173h-16.27l-8.136 14.173zM904.44 25.857l8.135 14.173h16.271l8.136-14.173-8.136-14.173h-16.27l-8.136 14.173zM1.4 40.03l8.135 14.173h16.271l8.136-14.173-8.136-14.173H9.536L1.4 40.03zM25.806 54.204l8.135 14.173h16.271l8.136-14.173-8.136-14.173h-16.27l-8.136 14.173zM50.213 40.03l8.135 14.173H74.62l8.136-14.173-8.136-14.173H58.35L50.212 40.03z" stroke-width="2.8" stroke-opacity=".075" stroke="#000" fill="#fff" opacity=".85"/><path d="M74.619 54.204l8.135 14.173h16.271l8.136-14.173-8.136-14.173h-16.27l-8.136 14.173z" stroke-width="2.8" stroke-opacity=".075" stroke="#000" fill="#fff" opacity=".85"/><path d="M99.025 40.03l8.135 14.173h16.271l8.136-14.173-8.136-14.173h-16.27L99.024 40.03z" stroke-width="2.8" stroke-opacity=".075" stroke="#000" fill="#fff" opacity=".85"/><path d="M123.43 54.204l8.135 14.173h16.271l8.136-14.173-8.136-14.173h-16.27l-8.136 14.173zM147.84 40.03l8.135 14.173h16.271l8.136-14.173-8.136-14.173h-16.27L147.84 40.03z" stroke-width="2.8" stroke-opacity=".075" stroke="#000" fill="#fff" opacity=".85"/><path d="M172.24 54.204l8.135 14.173h16.271l8.136-14.173-8.136-14.173h-16.27l-8.136 14.173zM196.65 40.03l8.135 14.173h16.271l8.136-14.173-8.136-14.173h-16.27L196.65 40.03zM221.06 54.204l8.135 14.173h16.271l8.136-14.173-8.136-14.173h-16.27l-8.136 14.173z" stroke-width="2.8" stroke-opacity=".075" stroke="#000" fill="#fff" opacity=".85"/><path d="M245.46 40.03l8.135 14.173h16.271l8.136-14.173-8.136-14.173h-16.27L245.46 40.03zM269.87 54.204l8.135 14.173h16.271l8.136-14.173-8.136-14.173h-16.27l-8.136 14.173zM294.28 40.03l8.135 14.173h16.271l8.136-14.173-8.136-14.173h-16.27L294.28 40.03z" stroke-width="2.8" stroke-opacity=".075" stroke="#000" fill="#fff" opacity=".85"/><path d="M318.68 54.204l8.135 14.173h16.271l8.136-14.173-8.136-14.173h-16.27l-8.136 14.173zM343.09 40.03l8.135 14.173h16.271l8.136-14.173-8.136-14.173h-16.27L343.09 40.03zM367.5 54.204l8.135 14.173h16.271l8.136-14.173-8.136-14.173h-16.27L367.5 54.204z" stroke-width="2.8" stroke-opacity=".075" stroke="#000" fill="#fff" opacity=".85"/><path d="M391.9 40.03l8.135 14.173h16.271l8.136-14.173-8.136-14.173h-16.27L391.9 40.03zM416.31 54.204l8.135 14.173h16.271l8.136-14.173-8.136-14.173h-16.27l-8.136 14.173zM440.72 40.03l8.135 14.173h16.271l8.136-14.173-8.136-14.173h-16.27L440.72 40.03z" stroke-width="2.8" stroke-opacity=".075" stroke="#000" fill="#fff" opacity=".85"/><path d="M465.12 54.204l8.135 14.173h16.271l8.136-14.173-8.136-14.173h-16.27l-8.136 14.173zM489.53 40.03l8.135 14.173h16.271l8.136-14.173-8.136-14.173h-16.27L489.53 40.03zM513.94 54.204l8.135 14.173h16.271l8.136-14.173-8.136-14.173h-16.27l-8.136 14.173z" stroke-width="2.8" stroke-opacity=".075" stroke="#000" fill="#fff" opacity=".85"/><path d="M538.34 40.03l8.135 14.173h16.271l8.136-14.173-8.136-14.173h-16.27L538.34 40.03zM562.75 54.204l8.135 14.173h16.271l8.136-14.173-8.136-14.173h-16.27l-8.136 14.173zM587.16 40.03l8.135 14.173h16.271l8.136-14.173-8.136-14.173h-16.27L587.16 40.03z" stroke-width="2.8" stroke-opacity=".075" stroke="#000" fill="#fff" opacity=".85"/><path d="M611.56 54.204l8.135 14.173h16.271l8.136-14.173-8.136-14.173h-16.27l-8.136 14.173zM635.97 40.03l8.135 14.173h16.271l8.136-14.173-8.136-14.173h-16.27L635.97 40.03z" stroke-width="2.8" stroke-opacity=".075" stroke="#000" fill="#fff" opacity=".85"/><path d="M660.37 54.204l8.135 14.173h16.271l8.136-14.173-8.136-14.173h-16.27l-8.136 14.173zM684.78 40.03l8.135 14.173h16.271l8.136-14.173-8.136-14.173h-16.27L684.78 40.03zM709.19 54.204l8.135 14.173h16.271l8.136-14.173-8.136-14.173h-16.27l-8.136 14.173z" stroke-width="2.8" stroke-opacity=".075" stroke="#000" fill="#fff" opacity=".85"/><path d="M733.59 40.03l8.135 14.173h16.271l8.136-14.173-8.136-14.173h-16.27L733.59 40.03zM758 54.204l8.135 14.173h16.271l8.136-14.173-8.136-14.173h-16.27L758 54.204zM782.41 40.03l8.135 14.173h16.271l8.136-14.173-8.136-14.173h-16.27L782.41 40.03z" stroke-width="2.8" stroke-opacity=".075" stroke="#000" fill="#fff" opacity=".85"/><path d="M806.81 54.204l8.135 14.173h16.271l8.136-14.173-8.136-14.173h-16.27l-8.136 14.173zM831.22 40.03l8.135 14.173h16.271l8.136-14.173-8.136-14.173h-16.27L831.22 40.03zM855.63 54.204l8.135 14.173h16.271l8.136-14.173-8.136-14.173h-16.27l-8.136 14.173z" stroke-width="2.8" stroke-opacity=".075" stroke="#000" fill="#fff" opacity=".85"/><path d="M880.03 40.03l8.135 14.173h16.271l8.136-14.173-8.136-14.173h-16.27L880.03 40.03zM904.44 54.204l8.135 14.173h16.271l8.136-14.173-8.136-14.173h-16.27l-8.136 14.173zM1.4 68.377L9.535 82.55h16.271l8.136-14.173-8.136-14.173H9.536L1.4 68.377z" stroke-width="2.8" stroke-opacity=".075" stroke="#000" fill="#fff" opacity=".85"/><path d="M25.806 82.55l8.135 14.173h16.271l8.136-14.173-8.136-14.173h-16.27L25.805 82.55zM50.213 68.377l8.135 14.173H74.62l8.136-14.173-8.136-14.173H58.35l-8.136 14.173z" stroke-width="2.8" stroke-opacity=".075" stroke="#000" fill="#fff" opacity=".85"/><path d="M74.619 82.55l8.135 14.173h16.271l8.136-14.173-8.136-14.173h-16.27L74.618 82.55z" stroke-width="2.8" stroke-opacity=".075" stroke="#000" fill="#fff" opacity=".85"/><path d="M99.025 68.377l8.135 14.173h16.271l8.136-14.173-8.136-14.173h-16.27l-8.136 14.173z" stroke-width="2.8" stroke-opacity=".075" stroke="#000" fill="#fff" opacity=".85"/><path d="M123.43 82.55l8.135 14.173h16.271l8.136-14.173-8.136-14.173h-16.27L123.43 82.55zM147.84 68.377l8.135 14.173h16.271l8.136-14.173-8.136-14.173h-16.27l-8.136 14.173z" stroke-width="2.8" stroke-opacity=".075" stroke="#000" fill="#fff" opacity=".85"/><path d="M172.24 82.55l8.135 14.173h16.271l8.136-14.173-8.136-14.173h-16.27L172.24 82.55zM196.65 68.377l8.135 14.173h16.271l8.136-14.173-8.136-14.173h-16.27l-8.136 14.173zM221.06 82.55l8.135 14.173h16.271l8.136-14.173-8.136-14.173h-16.27L221.06 82.55z" stroke-width="2.8" stroke-opacity=".075" stroke="#000" fill="#fff" opacity=".85"/><path d="M245.46 68.377l8.135 14.173h16.271l8.136-14.173-8.136-14.173h-16.27l-8.136 14.173zM269.87 82.55l8.135 14.173h16.271l8.136-14.173-8.136-14.173h-16.27L269.87 82.55zM294.28 68.377l8.135 14.173h16.271l8.136-14.173-8.136-14.173h-16.27l-8.136 14.173z" stroke-width="2.8" stroke-opacity=".075" stroke="#000" fill="#fff" opacity=".85"/><path d="M318.68 82.55l8.135 14.173h16.271l8.136-14.173-8.136-14.173h-16.27L318.68 82.55zM343.09 68.377l8.135 14.173h16.271l8.136-14.173-8.136-14.173h-16.27l-8.136 14.173zM367.5 82.55l8.135 14.173h16.271l8.136-14.173-8.136-14.173h-16.27L367.5 82.55z" stroke-width="2.8" stroke-opacity=".075" stroke="#000" fill="#fff" opacity=".85"/><path d="M391.9 68.377l8.135 14.173h16.271l8.136-14.173-8.136-14.173h-16.27L391.9 68.377zM416.31 82.55l8.135 14.173h16.271l8.136-14.173-8.136-14.173h-16.27L416.31 82.55zM440.72 68.377l8.135 14.173h16.271l8.136-14.173-8.136-14.173h-16.27l-8.136 14.173z" stroke-width="2.8" stroke-opacity=".075" stroke="#000" fill="#fff" opacity=".85"/><path d="M465.12 82.55l8.135 14.173h16.271l8.136-14.173-8.136-14.173h-16.27L465.12 82.55zM489.53 68.377l8.135 14.173h16.271l8.136-14.173-8.136-14.173h-16.27l-8.136 14.173zM513.94 82.55l8.135 14.173h16.271l8.136-14.173-8.136-14.173h-16.27L513.94 82.55z" stroke-width="2.8" stroke-opacity=".075" stroke="#000" fill="#fff" opacity=".85"/><path d="M538.34 68.377l8.135 14.173h16.271l8.136-14.173-8.136-14.173h-16.27l-8.136 14.173zM562.75 82.55l8.135 14.173h16.271l8.136-14.173-8.136-14.173h-16.27L562.75 82.55zM587.16 68.377l8.135 14.173h16.271l8.136-14.173-8.136-14.173h-16.27l-8.136 14.173z" stroke-width="2.8" stroke-opacity=".075" stroke="#000" fill="#fff" opacity=".85"/><path d="M611.56 82.55l8.135 14.173h16.271l8.136-14.173-8.136-14.173h-16.27L611.56 82.55zM635.97 68.377l8.135 14.173h16.271l8.136-14.173-8.136-14.173h-16.27l-8.136 14.173z" stroke-width="2.8" stroke-opacity=".075" stroke="#000" fill="#fff" opacity=".85"/><path d="M660.37 82.55l8.135 14.173h16.271l8.136-14.173-8.136-14.173h-16.27L660.37 82.55zM684.78 68.377l8.135 14.173h16.271l8.136-14.173-8.136-14.173h-16.27l-8.136 14.173zM709.19 82.55l8.135 14.173h16.271l8.136-14.173-8.136-14.173h-16.27L709.19 82.55z" stroke-width="2.8" stroke-opacity=".075" stroke="#000" fill="#fff" opacity=".85"/><path d="M733.59 68.377l8.135 14.173h16.271l8.136-14.173-8.136-14.173h-16.27l-8.136 14.173zM758 82.55l8.135 14.173h16.271l8.136-14.173-8.136-14.173h-16.27L758 82.55zM782.41 68.377l8.135 14.173h16.271l8.136-14.173-8.136-14.173h-16.27l-8.136 14.173z" stroke-width="2.8" stroke-opacity=".075" stroke="#000" fill="#fff" opacity=".85"/><path d="M806.81 82.55l8.135 14.173h16.271l8.136-14.173-8.136-14.173h-16.27L806.81 82.55zM831.22 68.377l8.135 14.173h16.271l8.136-14.173-8.136-14.173h-16.27l-8.136 14.173zM855.63 82.55l8.135 14.173h16.271l8.136-14.173-8.136-14.173h-16.27L855.63 82.55z" stroke-width="2.8" stroke-opacity=".075" stroke="#000" fill="#fff" opacity=".85"/><path d="M880.03 68.377l8.135 14.173h16.271l8.136-14.173-8.136-14.173h-16.27l-8.136 14.173zM904.44 82.55l8.135 14.173h16.271l8.136-14.173-8.136-14.173h-16.27L904.44 82.55zM1.4 96.723l8.135 14.173h16.271l8.136-14.173-8.136-14.173H9.536L1.4 96.723zM25.806 110.897l8.135 14.173h16.271l8.136-14.173-8.136-14.173h-16.27l-8.136 14.173zM50.213 96.723l8.135 14.173H74.62l8.136-14.173-8.136-14.173H58.35l-8.136 14.173z" stroke-width="2.8" stroke-opacity=".075" stroke="#000" fill="#fff" opacity=".85"/><path d="M74.619 110.897l8.135 14.173h16.271l8.136-14.173-8.136-14.173h-16.27l-8.136 14.173z" stroke-width="2.8" stroke-opacity=".075" stroke="#000" fill="#fff" opacity=".85"/><path d="M99.025 96.723l8.135 14.173h16.271l8.136-14.173-8.136-14.173h-16.27l-8.136 14.173z" stroke-width="2.8" stroke-opacity=".075" stroke="#000" fill="#fff" opacity=".85"/><path d="M123.43 110.897l8.135 14.173h16.271l8.136-14.173-8.136-14.173h-16.27l-8.136 14.173zM147.84 96.723l8.135 14.173h16.271l8.136-14.173-8.136-14.173h-16.27l-8.136 14.173z" stroke-width="2.8" stroke-opacity=".075" stroke="#000" fill="#fff" opacity=".85"/><path d="M172.24 110.897l8.135 14.173h16.271l8.136-14.173-8.136-14.173h-16.27l-8.136 14.173zM196.65 96.723l8.135 14.173h16.271l8.136-14.173-8.136-14.173h-16.27l-8.136 14.173zM221.06 110.897l8.135 14.173h16.271l8.136-14.173-8.136-14.173h-16.27l-8.136 14.173z" stroke-width="2.8" stroke-opacity=".075" stroke="#000" fill="#fff" opacity=".85"/><path d="M245.46 96.723l8.135 14.173h16.271l8.136-14.173-8.136-14.173h-16.27l-8.136 14.173zM269.87 110.897l8.135 14.173h16.271l8.136-14.173-8.136-14.173h-16.27l-8.136 14.173zM294.28 96.723l8.135 14.173h16.271l8.136-14.173-8.136-14.173h-16.27l-8.136 14.173z" stroke-width="2.8" stroke-opacity=".075" stroke="#000" fill="#fff" opacity=".85"/><path d="M318.68 110.897l8.135 14.173h16.271l8.136-14.173-8.136-14.173h-16.27l-8.136 14.173zM343.09 96.723l8.135 14.173h16.271l8.136-14.173-8.136-14.173h-16.27l-8.136 14.173zM367.5 110.897l8.135 14.173h16.271l8.136-14.173-8.136-14.173h-16.27l-8.136 14.173z" stroke-width="2.8" stroke-opacity=".075" stroke="#000" fill="#fff" opacity=".85"/><path d="M391.9 96.723l8.135 14.173h16.271l8.136-14.173-8.136-14.173h-16.27L391.9 96.723zM416.31 110.897l8.135 14.173h16.271l8.136-14.173-8.136-14.173h-16.27l-8.136 14.173zM440.72 96.723l8.135 14.173h16.271l8.136-14.173-8.136-14.173h-16.27l-8.136 14.173z" stroke-width="2.8" stroke-opacity=".075" stroke="#000" fill="#fff" opacity=".85"/><path d="M465.12 110.897l8.135 14.173h16.271l8.136-14.173-8.136-14.173h-16.27l-8.136 14.173zM489.53 96.723l8.135 14.173h16.271l8.136-14.173-8.136-14.173h-16.27l-8.136 14.173zM513.94 110.897l8.135 14.173h16.271l8.136-14.173-8.136-14.173h-16.27l-8.136 14.173z" stroke-width="2.8" stroke-opacity=".075" stroke="#000" fill="#fff" opacity=".85"/><path d="M538.34 96.723l8.135 14.173h16.271l8.136-14.173-8.136-14.173h-16.27l-8.136 14.173zM562.75 110.897l8.135 14.173h16.271l8.136-14.173-8.136-14.173h-16.27l-8.136 14.173zM587.16 96.723l8.135 14.173h16.271l8.136-14.173-8.136-14.173h-16.27l-8.136 14.173z" stroke-width="2.8" stroke-opacity=".075" stroke="#000" fill="#fff" opacity=".85"/><path d="M611.56 110.897l8.135 14.173h16.271l8.136-14.173-8.136-14.173h-16.27l-8.136 14.173zM635.97 96.723l8.135 14.173h16.271l8.136-14.173-8.136-14.173h-16.27l-8.136 14.173z" stroke-width="2.8" stroke-opacity=".075" stroke="#000" fill="#fff" opacity=".85"/><path d="M660.37 110.897l8.135 14.173h16.271l8.136-14.173-8.136-14.173h-16.27l-8.136 14.173zM684.78 96.723l8.135 14.173h16.271l8.136-14.173-8.136-14.173h-16.27l-8.136 14.173zM709.19 110.897l8.135 14.173h16.271l8.136-14.173-8.136-14.173h-16.27l-8.136 14.173z" stroke-width="2.8" stroke-opacity=".075" stroke="#000" fill="#fff" opacity=".85"/><path d="M733.59 96.723l8.135 14.173h16.271l8.136-14.173-8.136-14.173h-16.27l-8.136 14.173zM758 110.897l8.135 14.173h16.271l8.136-14.173-8.136-14.173h-16.27L758 110.897zM782.41 96.723l8.135 14.173h16.271l8.136-14.173-8.136-14.173h-16.27l-8.136 14.173z" stroke-width="2.8" stroke-opacity=".075" stroke="#000" fill="#fff" opacity=".85"/><path d="M806.81 110.897l8.135 14.173h16.271l8.136-14.173-8.136-14.173h-16.27l-8.136 14.173zM831.22 96.723l8.135 14.173h16.271l8.136-14.173-8.136-14.173h-16.27l-8.136 14.173zM855.63 110.897l8.135 14.173h16.271l8.136-14.173-8.136-14.173h-16.27l-8.136 14.173z" stroke-width="2.8" stroke-opacity=".075" stroke="#000" fill="#fff" opacity=".85"/><path d="M880.03 96.723l8.135 14.173h16.271l8.136-14.173-8.136-14.173h-16.27l-8.136 14.173zM904.44 110.897l8.135 14.173h16.271l8.136-14.173-8.136-14.173h-16.27l-8.136 14.173zM1.4 125.073l8.135 14.173h16.271l8.136-14.173-8.136-14.173H9.536L1.4 125.073z" stroke-width="2.8" stroke-opacity=".075" stroke="#000" fill="#fff" opacity=".85"/><path d="M25.806 139.243l8.135 14.173h16.271l8.136-14.173-8.136-14.173h-16.27l-8.136 14.173z" stroke-width="2.8" stroke-opacity=".075" stroke="#000" fill="#fff" opacity=".85"/><path d="M50.213 125.073l8.135 14.173H74.62l8.136-14.173-8.136-14.173H58.35l-8.136 14.173z" stroke-width="2.8" stroke-opacity=".075" stroke="#000" fill="#fff" opacity=".85"/><path d="M74.619 139.243l8.135 14.173h16.271l8.136-14.173-8.136-14.173h-16.27l-8.136 14.173z" stroke-width="2.8" stroke-opacity=".075" stroke="#000" fill="#fff" opacity=".85"/><path d="M99.025 125.073l8.135 14.173h16.271l8.136-14.173-8.136-14.173h-16.27l-8.136 14.173z" stroke-width="2.8" stroke-opacity=".075" stroke="#000" fill="#fff" opacity=".85"/><path d="M123.43 139.243l8.135 14.173h16.271l8.136-14.173-8.136-14.173h-16.27l-8.136 14.173zM147.84 125.073l8.135 14.173h16.271l8.136-14.173-8.136-14.173h-16.27l-8.136 14.173z" stroke-width="2.8" stroke-opacity=".075" stroke="#000" fill="#fff" opacity=".85"/><path d="M172.24 139.243l8.135 14.173h16.271l8.136-14.173-8.136-14.173h-16.27l-8.136 14.173zM196.65 125.073l8.135 14.173h16.271l8.136-14.173-8.136-14.173h-16.27l-8.136 14.173zM221.06 139.243l8.135 14.173h16.271l8.136-14.173-8.136-14.173h-16.27l-8.136 14.173z" stroke-width="2.8" stroke-opacity=".075" stroke="#000" fill="#fff" opacity=".85"/><path d="M245.46 125.073l8.135 14.173h16.271l8.136-14.173-8.136-14.173h-16.27l-8.136 14.173zM269.87 139.243l8.135 14.173h16.271l8.136-14.173-8.136-14.173h-16.27l-8.136 14.173zM294.28 125.073l8.135 14.173h16.271l8.136-14.173-8.136-14.173h-16.27l-8.136 14.173z" stroke-width="2.8" stroke-opacity=".075" stroke="#000" fill="#fff" opacity=".85"/><path d="M318.68 139.243l8.135 14.173h16.271l8.136-14.173-8.136-14.173h-16.27l-8.136 14.173zM343.09 125.073l8.135 14.173h16.271l8.136-14.173-8.136-14.173h-16.27l-8.136 14.173zM367.5 139.243l8.135 14.173h16.271l8.136-14.173-8.136-14.173h-16.27l-8.136 14.173z" stroke-width="2.8" stroke-opacity=".075" stroke="#000" fill="#fff" opacity=".85"/><path d="M391.9 125.073l8.135 14.173h16.271l8.136-14.173-8.136-14.173h-16.27l-8.136 14.173zM416.31 139.243l8.135 14.173h16.271l8.136-14.173-8.136-14.173h-16.27l-8.136 14.173zM440.72 125.073l8.135 14.173h16.271l8.136-14.173-8.136-14.173h-16.27l-8.136 14.173z" stroke-width="2.8" stroke-opacity=".075" stroke="#000" fill="#fff" opacity=".85"/><path d="M465.12 139.243l8.135 14.173h16.271l8.136-14.173-8.136-14.173h-16.27l-8.136 14.173zM489.53 125.073l8.135 14.173h16.271l8.136-14.173-8.136-14.173h-16.27l-8.136 14.173zM513.94 139.243l8.135 14.173h16.271l8.136-14.173-8.136-14.173h-16.27l-8.136 14.173z" stroke-width="2.8" stroke-opacity=".075" stroke="#000" fill="#fff" opacity=".85"/><path d="M538.34 125.073l8.135 14.173h16.271l8.136-14.173-8.136-14.173h-16.27l-8.136 14.173zM562.75 139.243l8.135 14.173h16.271l8.136-14.173-8.136-14.173h-16.27l-8.136 14.173zM587.16 125.073l8.135 14.173h16.271l8.136-14.173-8.136-14.173h-16.27l-8.136 14.173z" stroke-width="2.8" stroke-opacity=".075" stroke="#000" fill="#fff" opacity=".85"/><path d="M611.56 139.243l8.135 14.173h16.271l8.136-14.173-8.136-14.173h-16.27l-8.136 14.173zM635.97 125.073l8.135 14.173h16.271l8.136-14.173-8.136-14.173h-16.27l-8.136 14.173z" stroke-width="2.8" stroke-opacity=".075" stroke="#000" fill="#fff" opacity=".85"/><path d="M660.37 139.243l8.135 14.173h16.271l8.136-14.173-8.136-14.173h-16.27l-8.136 14.173zM684.78 125.073l8.135 14.173h16.271l8.136-14.173-8.136-14.173h-16.27l-8.136 14.173zM709.19 139.243l8.135 14.173h16.271l8.136-14.173-8.136-14.173h-16.27l-8.136 14.173z" stroke-width="2.8" stroke-opacity=".075" stroke="#000" fill="#fff" opacity=".85"/><path d="M733.59 125.073l8.135 14.173h16.271l8.136-14.173-8.136-14.173h-16.27l-8.136 14.173zM758 139.243l8.135 14.173h16.271l8.136-14.173-8.136-14.173h-16.27L758 139.243zM782.41 125.073l8.135 14.173h16.271l8.136-14.173-8.136-14.173h-16.27l-8.136 14.173z" stroke-width="2.8" stroke-opacity=".075" stroke="#000" fill="#fff" opacity=".85"/><path d="M806.81 139.243l8.135 14.173h16.271l8.136-14.173-8.136-14.173h-16.27l-8.136 14.173zM831.22 125.073l8.135 14.173h16.271l8.136-14.173-8.136-14.173h-16.27l-8.136 14.173zM855.63 139.243l8.135 14.173h16.271l8.136-14.173-8.136-14.173h-16.27l-8.136 14.173z" stroke-width="2.8" stroke-opacity=".075" stroke="#000" fill="#fff" opacity=".85"/><path d="M880.03 125.073l8.135 14.173h16.271l8.136-14.173-8.136-14.173h-16.27l-8.136 14.173zM904.44 139.243l8.135 14.173h16.271l8.136-14.173-8.136-14.173h-16.27l-8.136 14.173zM1.4 153.413l8.135 14.173h16.271l8.136-14.173-8.136-14.173H9.536L1.4 153.413zM25.806 167.593l8.135 14.173h16.271l8.136-14.173-8.136-14.173h-16.27l-8.136 14.173zM50.213 153.413l8.135 14.173H74.62l8.136-14.173-8.136-14.173H58.35l-8.136 14.173zM74.619 167.593l8.135 14.173h16.271l8.136-14.173-8.136-14.173h-16.27l-8.136 14.173zM99.025 153.413l8.135 14.173h16.271l8.136-14.173-8.136-14.173h-16.27l-8.136 14.173zM123.43 167.593l8.135 14.173h16.271l8.136-14.173-8.136-14.173h-16.27l-8.136 14.173zM147.84 153.413l8.135 14.173h16.271l8.136-14.173-8.136-14.173h-16.27l-8.136 14.173z" stroke-width="2.8" stroke-opacity=".075" stroke="#000" fill="#fff" opacity=".85"/><path d="M172.24 167.593l8.135 14.173h16.271l8.136-14.173-8.136-14.173h-16.27l-8.136 14.173zM196.65 153.413l8.135 14.173h16.271l8.136-14.173-8.136-14.173h-16.27l-8.136 14.173zM221.06 167.593l8.135 14.173h16.271l8.136-14.173-8.136-14.173h-16.27l-8.136 14.173z" stroke-width="2.8" stroke-opacity=".075" stroke="#000" fill="#fff" opacity=".85"/><path d="M245.46 153.413l8.135 14.173h16.271l8.136-14.173-8.136-14.173h-16.27l-8.136 14.173zM269.87 167.593l8.135 14.173h16.271l8.136-14.173-8.136-14.173h-16.27l-8.136 14.173zM294.28 153.413l8.135 14.173h16.271l8.136-14.173-8.136-14.173h-16.27l-8.136 14.173z" stroke-width="2.8" stroke-opacity=".075" stroke="#000" fill="#fff" opacity=".85"/><path d="M318.68 167.593l8.135 14.173h16.271l8.136-14.173-8.136-14.173h-16.27l-8.136 14.173zM343.09 153.413l8.135 14.173h16.271l8.136-14.173-8.136-14.173h-16.27l-8.136 14.173zM367.5 167.593l8.135 14.173h16.271l8.136-14.173-8.136-14.173h-16.27l-8.136 14.173z" stroke-width="2.8" stroke-opacity=".075" stroke="#000" fill="#fff" opacity=".85"/><path d="M391.9 153.413l8.135 14.173h16.271l8.136-14.173-8.136-14.173h-16.27l-8.136 14.173zM416.31 167.593l8.135 14.173h16.271l8.136-14.173-8.136-14.173h-16.27l-8.136 14.173zM440.72 153.413l8.135 14.173h16.271l8.136-14.173-8.136-14.173h-16.27l-8.136 14.173z" stroke-width="2.8" stroke-opacity=".075" stroke="#000" fill="#fff" opacity=".85"/><path d="M465.12 167.593l8.135 14.173h16.271l8.136-14.173-8.136-14.173h-16.27l-8.136 14.173zM489.53 153.413l8.135 14.173h16.271l8.136-14.173-8.136-14.173h-16.27l-8.136 14.173zM513.94 167.593l8.135 14.173h16.271l8.136-14.173-8.136-14.173h-16.27l-8.136 14.173z" stroke-width="2.8" stroke-opacity=".075" stroke="#000" fill="#fff" opacity=".85"/><path d="M538.34 153.413l8.135 14.173h16.271l8.136-14.173-8.136-14.173h-16.27l-8.136 14.173zM562.75 167.593l8.135 14.173h16.271l8.136-14.173-8.136-14.173h-16.27l-8.136 14.173zM587.16 153.413l8.135 14.173h16.271l8.136-14.173-8.136-14.173h-16.27l-8.136 14.173z" stroke-width="2.8" stroke-opacity=".075" stroke="#000" fill="#fff" opacity=".85"/><path d="M611.56 167.593l8.135 14.173h16.271l8.136-14.173-8.136-14.173h-16.27l-8.136 14.173zM635.97 153.413l8.135 14.173h16.271l8.136-14.173-8.136-14.173h-16.27l-8.136 14.173z" stroke-width="2.8" stroke-opacity=".075" stroke="#000" fill="#fff" opacity=".85"/><path d="M660.37 167.593l8.135 14.173h16.271l8.136-14.173-8.136-14.173h-16.27l-8.136 14.173zM684.78 153.413l8.135 14.173h16.271l8.136-14.173-8.136-14.173h-16.27l-8.136 14.173zM709.19 167.593l8.135 14.173h16.271l8.136-14.173-8.136-14.173h-16.27l-8.136 14.173z" stroke-width="2.8" stroke-opacity=".075" stroke="#000" fill="#fff" opacity=".85"/><path d="M733.59 153.413l8.135 14.173h16.271l8.136-14.173-8.136-14.173h-16.27l-8.136 14.173zM758 167.593l8.135 14.173h16.271l8.136-14.173-8.136-14.173h-16.27L758 167.593zM782.41 153.413l8.135 14.173h16.271l8.136-14.173-8.136-14.173h-16.27l-8.136 14.173z" stroke-width="2.8" stroke-opacity=".075" stroke="#000" fill="#fff" opacity=".85"/><path d="M806.81 167.593l8.135 14.173h16.271l8.136-14.173-8.136-14.173h-16.27l-8.136 14.173zM831.22 153.413l8.135 14.173h16.271l8.136-14.173-8.136-14.173h-16.27l-8.136 14.173zM855.63 167.593l8.135 14.173h16.271l8.136-14.173-8.136-14.173h-16.27l-8.136 14.173z" stroke-width="2.8" stroke-opacity=".075" stroke="#000" fill="#fff" opacity=".85"/><path d="M880.03 153.413l8.135 14.173h16.271l8.136-14.173-8.136-14.173h-16.27l-8.136 14.173zM904.44 167.593l8.135 14.173h16.271l8.136-14.173-8.136-14.173h-16.27l-8.136 14.173zM1.4 181.763l8.135 14.173h16.271l8.136-14.173-8.136-14.173H9.536L1.4 181.763z" stroke-width="2.8" stroke-opacity=".075" stroke="#000" fill="#fff" opacity=".85"/><path d="M25.806 195.933l8.135 14.173h16.271l8.136-14.173-8.136-14.173h-16.27l-8.136 14.173z" stroke-width="2.8" stroke-opacity=".075" stroke="#000" fill="#fff" opacity=".85"/><path d="M50.213 181.763l8.135 14.173H74.62l8.136-14.173-8.136-14.173H58.35l-8.136 14.173z" stroke-width="2.8" stroke-opacity=".075" stroke="#000" fill="#fff" opacity=".85"/><path d="M74.619 195.933l8.135 14.173h16.271l8.136-14.173-8.136-14.173h-16.27l-8.136 14.173z" stroke-width="2.8" stroke-opacity=".075" stroke="#000" fill="#fff" opacity=".85"/><path d="M99.025 181.763l8.135 14.173h16.271l8.136-14.173-8.136-14.173h-16.27l-8.136 14.173z" stroke-width="2.8" stroke-opacity=".075" stroke="#000" fill="#fff" opacity=".85"/><path d="M123.43 195.933l8.135 14.173h16.271l8.136-14.173-8.136-14.173h-16.27l-8.136 14.173zM147.84 181.763l8.135 14.173h16.271l8.136-14.173-8.136-14.173h-16.27l-8.136 14.173z" stroke-width="2.8" stroke-opacity=".075" stroke="#000" fill="#fff" opacity=".85"/><path d="M172.24 195.933l8.135 14.173h16.271l8.136-14.173-8.136-14.173h-16.27l-8.136 14.173zM196.65 181.763l8.135 14.173h16.271l8.136-14.173-8.136-14.173h-16.27l-8.136 14.173zM221.06 195.933l8.135 14.173h16.271l8.136-14.173-8.136-14.173h-16.27l-8.136 14.173z" stroke-width="2.8" stroke-opacity=".075" stroke="#000" fill="#fff" opacity=".85"/><path d="M245.46 181.763l8.135 14.173h16.271l8.136-14.173-8.136-14.173h-16.27l-8.136 14.173zM269.87 195.933l8.135 14.173h16.271l8.136-14.173-8.136-14.173h-16.27l-8.136 14.173zM294.28 181.763l8.135 14.173h16.271l8.136-14.173-8.136-14.173h-16.27l-8.136 14.173z" stroke-width="2.8" stroke-opacity=".075" stroke="#000" fill="#fff" opacity=".85"/><path d="M318.68 195.933l8.135 14.173h16.271l8.136-14.173-8.136-14.173h-16.27l-8.136 14.173zM343.09 181.763l8.135 14.173h16.271l8.136-14.173-8.136-14.173h-16.27l-8.136 14.173zM367.5 195.933l8.135 14.173h16.271l8.136-14.173-8.136-14.173h-16.27l-8.136 14.173z" stroke-width="2.8" stroke-opacity=".075" stroke="#000" fill="#fff" opacity=".85"/><path d="M391.9 181.763l8.135 14.173h16.271l8.136-14.173-8.136-14.173h-16.27l-8.136 14.173zM416.31 195.933l8.135 14.173h16.271l8.136-14.173-8.136-14.173h-16.27l-8.136 14.173zM440.72 181.763l8.135 14.173h16.271l8.136-14.173-8.136-14.173h-16.27l-8.136 14.173z" stroke-width="2.8" stroke-opacity=".075" stroke="#000" fill="#fff" opacity=".85"/><path d="M465.12 195.933l8.135 14.173h16.271l8.136-14.173-8.136-14.173h-16.27l-8.136 14.173zM489.53 181.763l8.135 14.173h16.271l8.136-14.173-8.136-14.173h-16.27l-8.136 14.173zM513.94 195.933l8.135 14.173h16.271l8.136-14.173-8.136-14.173h-16.27l-8.136 14.173z" stroke-width="2.8" stroke-opacity=".075" stroke="#000" fill="#fff" opacity=".85"/><path d="M538.34 181.763l8.135 14.173h16.271l8.136-14.173-8.136-14.173h-16.27l-8.136 14.173zM562.75 195.933l8.135 14.173h16.271l8.136-14.173-8.136-14.173h-16.27l-8.136 14.173zM587.16 181.763l8.135 14.173h16.271l8.136-14.173-8.136-14.173h-16.27l-8.136 14.173z" stroke-width="2.8" stroke-opacity=".075" stroke="#000" fill="#fff" opacity=".85"/><path d="M611.56 195.933l8.135 14.173h16.271l8.136-14.173-8.136-14.173h-16.27l-8.136 14.173zM635.97 181.763l8.135 14.173h16.271l8.136-14.173-8.136-14.173h-16.27l-8.136 14.173z" stroke-width="2.8" stroke-opacity=".075" stroke="#000" fill="#fff" opacity=".85"/><path d="M660.37 195.933l8.135 14.173h16.271l8.136-14.173-8.136-14.173h-16.27l-8.136 14.173zM684.78 181.763l8.135 14.173h16.271l8.136-14.173-8.136-14.173h-16.27l-8.136 14.173zM709.19 195.933l8.135 14.173h16.271l8.136-14.173-8.136-14.173h-16.27l-8.136 14.173z" stroke-width="2.8" stroke-opacity=".075" stroke="#000" fill="#fff" opacity=".85"/><path d="M733.59 181.763l8.135 14.173h16.271l8.136-14.173-8.136-14.173h-16.27l-8.136 14.173zM758 195.933l8.135 14.173h16.271l8.136-14.173-8.136-14.173h-16.27L758 195.933zM782.41 181.763l8.135 14.173h16.271l8.136-14.173-8.136-14.173h-16.27l-8.136 14.173z" stroke-width="2.8" stroke-opacity=".075" stroke="#000" fill="#fff" opacity=".85"/><path d="M806.81 195.933l8.135 14.173h16.271l8.136-14.173-8.136-14.173h-16.27l-8.136 14.173zM831.22 181.763l8.135 14.173h16.271l8.136-14.173-8.136-14.173h-16.27l-8.136 14.173zM855.63 195.933l8.135 14.173h16.271l8.136-14.173-8.136-14.173h-16.27l-8.136 14.173z" stroke-width="2.8" stroke-opacity=".075" stroke="#000" fill="#fff" opacity=".85"/><path d="M880.03 181.763l8.135 14.173h16.271l8.136-14.173-8.136-14.173h-16.27l-8.136 14.173zM904.44 195.933l8.135 14.173h16.271l8.136-14.173-8.136-14.173h-16.27l-8.136 14.173zM1.4 210.103l8.135 14.173h16.271l8.136-14.173-8.136-14.173H9.536L1.4 210.103zM25.806 224.283l8.135 14.173h16.271l8.136-14.173-8.136-14.173h-16.27l-8.136 14.173zM50.213 210.103l8.135 14.173H74.62l8.136-14.173-8.136-14.173H58.35l-8.136 14.173zM74.619 224.283l8.135 14.173h16.271l8.136-14.173-8.136-14.173h-16.27l-8.136 14.173zM99.025 210.103l8.135 14.173h16.271l8.136-14.173-8.136-14.173h-16.27l-8.136 14.173zM123.43 224.283l8.135 14.173h16.271l8.136-14.173-8.136-14.173h-16.27l-8.136 14.173zM147.84 210.103l8.135 14.173h16.271l8.136-14.173-8.136-14.173h-16.27l-8.136 14.173z" stroke-width="2.8" stroke-opacity=".075" stroke="#000" fill="#fff" opacity=".85"/><path d="M172.24 224.283l8.135 14.173h16.271l8.136-14.173-8.136-14.173h-16.27l-8.136 14.173zM196.65 210.103l8.135 14.173h16.271l8.136-14.173-8.136-14.173h-16.27l-8.136 14.173zM221.06 224.283l8.135 14.173h16.271l8.136-14.173-8.136-14.173h-16.27l-8.136 14.173z" stroke-width="2.8" stroke-opacity=".075" stroke="#000" fill="#fff" opacity=".85"/><path d="M245.46 210.103l8.135 14.173h16.271l8.136-14.173-8.136-14.173h-16.27l-8.136 14.173zM269.87 224.283l8.135 14.173h16.271l8.136-14.173-8.136-14.173h-16.27l-8.136 14.173zM294.28 210.103l8.135 14.173h16.271l8.136-14.173-8.136-14.173h-16.27l-8.136 14.173z" stroke-width="2.8" stroke-opacity=".075" stroke="#000" fill="#fff" opacity=".85"/><path d="M318.68 224.283l8.135 14.173h16.271l8.136-14.173-8.136-14.173h-16.27l-8.136 14.173zM343.09 210.103l8.135 14.173h16.271l8.136-14.173-8.136-14.173h-16.27l-8.136 14.173zM367.5 224.283l8.135 14.173h16.271l8.136-14.173-8.136-14.173h-16.27l-8.136 14.173z" stroke-width="2.8" stroke-opacity=".075" stroke="#000" fill="#fff" opacity=".85"/><path d="M391.9 210.103l8.135 14.173h16.271l8.136-14.173-8.136-14.173h-16.27l-8.136 14.173zM416.31 224.283l8.135 14.173h16.271l8.136-14.173-8.136-14.173h-16.27l-8.136 14.173zM440.72 210.103l8.135 14.173h16.271l8.136-14.173-8.136-14.173h-16.27l-8.136 14.173z" stroke-width="2.8" stroke-opacity=".075" stroke="#000" fill="#fff" opacity=".85"/><path d="M465.12 224.283l8.135 14.173h16.271l8.136-14.173-8.136-14.173h-16.27l-8.136 14.173zM489.53 210.103l8.135 14.173h16.271l8.136-14.173-8.136-14.173h-16.27l-8.136 14.173zM513.94 224.283l8.135 14.173h16.271l8.136-14.173-8.136-14.173h-16.27l-8.136 14.173z" stroke-width="2.8" stroke-opacity=".075" stroke="#000" fill="#fff" opacity=".85"/><path d="M538.34 210.103l8.135 14.173h16.271l8.136-14.173-8.136-14.173h-16.27l-8.136 14.173zM562.75 224.283l8.135 14.173h16.271l8.136-14.173-8.136-14.173h-16.27l-8.136 14.173zM587.16 210.103l8.135 14.173h16.271l8.136-14.173-8.136-14.173h-16.27l-8.136 14.173z" stroke-width="2.8" stroke-opacity=".075" stroke="#000" fill="#fff" opacity=".85"/><path d="M611.56 224.283l8.135 14.173h16.271l8.136-14.173-8.136-14.173h-16.27l-8.136 14.173zM635.97 210.103l8.135 14.173h16.271l8.136-14.173-8.136-14.173h-16.27l-8.136 14.173z" stroke-width="2.8" stroke-opacity=".075" stroke="#000" fill="#fff" opacity=".85"/><path d="M660.37 224.283l8.135 14.173h16.271l8.136-14.173-8.136-14.173h-16.27l-8.136 14.173zM684.78 210.103l8.135 14.173h16.271l8.136-14.173-8.136-14.173h-16.27l-8.136 14.173zM709.19 224.283l8.135 14.173h16.271l8.136-14.173-8.136-14.173h-16.27l-8.136 14.173z" stroke-width="2.8" stroke-opacity=".075" stroke="#000" fill="#fff" opacity=".85"/><path d="M733.59 210.103l8.135 14.173h16.271l8.136-14.173-8.136-14.173h-16.27l-8.136 14.173zM758 224.283l8.135 14.173h16.271l8.136-14.173-8.136-14.173h-16.27L758 224.283zM782.41 210.103l8.135 14.173h16.271l8.136-14.173-8.136-14.173h-16.27l-8.136 14.173z" stroke-width="2.8" stroke-opacity=".075" stroke="#000" fill="#fff" opacity=".85"/><path d="M806.81 224.283l8.135 14.173h16.271l8.136-14.173-8.136-14.173h-16.27l-8.136 14.173zM831.22 210.103l8.135 14.173h16.271l8.136-14.173-8.136-14.173h-16.27l-8.136 14.173zM855.63 224.283l8.135 14.173h16.271l8.136-14.173-8.136-14.173h-16.27l-8.136 14.173z" stroke-width="2.8" stroke-opacity=".075" stroke="#000" fill="#fff" opacity=".85"/><path d="M880.03 210.103l8.135 14.173h16.271l8.136-14.173-8.136-14.173h-16.27l-8.136 14.173zM904.44 224.283l8.135 14.173h16.271l8.136-14.173-8.136-14.173h-16.27l-8.136 14.173zM1.4 238.453l8.135 14.173h16.271l8.136-14.173-8.136-14.173H9.536L1.4 238.453z" stroke-width="2.8" stroke-opacity=".075" stroke="#000" fill="#fff" opacity=".85"/><path d="M25.806 252.623l8.135 14.173h16.271l8.136-14.173-8.136-14.173h-16.27l-8.136 14.173z" stroke-width="2.8" stroke-opacity=".075" stroke="#000" fill="#fff" opacity=".85"/><path d="M50.213 238.453l8.135 14.173H74.62l8.136-14.173-8.136-14.173H58.35l-8.136 14.173z" stroke-width="2.8" stroke-opacity=".075" stroke="#000" fill="#fff" opacity=".85"/><path d="M74.619 252.623l8.135 14.173h16.271l8.136-14.173-8.136-14.173h-16.27l-8.136 14.173z" stroke-width="2.8" stroke-opacity=".075" stroke="#000" fill="#fff" opacity=".85"/><path d="M99.025 238.453l8.135 14.173h16.271l8.136-14.173-8.136-14.173h-16.27l-8.136 14.173z" stroke-width="2.8" stroke-opacity=".075" stroke="#000" fill="#fff" opacity=".85"/><path d="M123.43 252.623l8.135 14.173h16.271l8.136-14.173-8.136-14.173h-16.27l-8.136 14.173zM147.84 238.453l8.135 14.173h16.271l8.136-14.173-8.136-14.173h-16.27l-8.136 14.173z" stroke-width="2.8" stroke-opacity=".075" stroke="#000" fill="#fff" opacity=".85"/><path d="M172.24 252.623l8.135 14.173h16.271l8.136-14.173-8.136-14.173h-16.27l-8.136 14.173zM196.65 238.453l8.135 14.173h16.271l8.136-14.173-8.136-14.173h-16.27l-8.136 14.173zM221.06 252.623l8.135 14.173h16.271l8.136-14.173-8.136-14.173h-16.27l-8.136 14.173z" stroke-width="2.8" stroke-opacity=".075" stroke="#000" fill="#fff" opacity=".85"/><path d="M245.46 238.453l8.135 14.173h16.271l8.136-14.173-8.136-14.173h-16.27l-8.136 14.173zM269.87 252.623l8.135 14.173h16.271l8.136-14.173-8.136-14.173h-16.27l-8.136 14.173zM294.28 238.453l8.135 14.173h16.271l8.136-14.173-8.136-14.173h-16.27l-8.136 14.173z" stroke-width="2.8" stroke-opacity=".075" stroke="#000" fill="#fff" opacity=".85"/><path d="M318.68 252.623l8.135 14.173h16.271l8.136-14.173-8.136-14.173h-16.27l-8.136 14.173zM343.09 238.453l8.135 14.173h16.271l8.136-14.173-8.136-14.173h-16.27l-8.136 14.173zM367.5 252.623l8.135 14.173h16.271l8.136-14.173-8.136-14.173h-16.27l-8.136 14.173z" stroke-width="2.8" stroke-opacity=".075" stroke="#000" fill="#fff" opacity=".85"/><path d="M391.9 238.453l8.135 14.173h16.271l8.136-14.173-8.136-14.173h-16.27l-8.136 14.173zM416.31 252.623l8.135 14.173h16.271l8.136-14.173-8.136-14.173h-16.27l-8.136 14.173zM440.72 238.453l8.135 14.173h16.271l8.136-14.173-8.136-14.173h-16.27l-8.136 14.173z" stroke-width="2.8" stroke-opacity=".075" stroke="#000" fill="#fff" opacity=".85"/><path d="M465.12 252.623l8.135 14.173h16.271l8.136-14.173-8.136-14.173h-16.27l-8.136 14.173zM489.53 238.453l8.135 14.173h16.271l8.136-14.173-8.136-14.173h-16.27l-8.136 14.173zM513.94 252.623l8.135 14.173h16.271l8.136-14.173-8.136-14.173h-16.27l-8.136 14.173z" stroke-width="2.8" stroke-opacity=".075" stroke="#000" fill="#fff" opacity=".85"/><path d="M538.34 238.453l8.135 14.173h16.271l8.136-14.173-8.136-14.173h-16.27l-8.136 14.173zM562.75 252.623l8.135 14.173h16.271l8.136-14.173-8.136-14.173h-16.27l-8.136 14.173zM587.16 238.453l8.135 14.173h16.271l8.136-14.173-8.136-14.173h-16.27l-8.136 14.173z" stroke-width="2.8" stroke-opacity=".075" stroke="#000" fill="#fff" opacity=".85"/><path d="M611.56 252.623l8.135 14.173h16.271l8.136-14.173-8.136-14.173h-16.27l-8.136 14.173zM635.97 238.453l8.135 14.173h16.271l8.136-14.173-8.136-14.173h-16.27l-8.136 14.173z" stroke-width="2.8" stroke-opacity=".075" stroke="#000" fill="#fff" opacity=".85"/><path d="M660.37 252.623l8.135 14.173h16.271l8.136-14.173-8.136-14.173h-16.27l-8.136 14.173zM684.78 238.453l8.135 14.173h16.271l8.136-14.173-8.136-14.173h-16.27l-8.136 14.173zM709.19 252.623l8.135 14.173h16.271l8.136-14.173-8.136-14.173h-16.27l-8.136 14.173z" stroke-width="2.8" stroke-opacity=".075" stroke="#000" fill="#fff" opacity=".85"/><path d="M733.59 238.453l8.135 14.173h16.271l8.136-14.173-8.136-14.173h-16.27l-8.136 14.173zM758 252.623l8.135 14.173h16.271l8.136-14.173-8.136-14.173h-16.27L758 252.623zM782.41 238.453l8.135 14.173h16.271l8.136-14.173-8.136-14.173h-16.27l-8.136 14.173z" stroke-width="2.8" stroke-opacity=".075" stroke="#000" fill="#fff" opacity=".85"/><path d="M806.81 252.623l8.135 14.173h16.271l8.136-14.173-8.136-14.173h-16.27l-8.136 14.173zM831.22 238.453l8.135 14.173h16.271l8.136-14.173-8.136-14.173h-16.27l-8.136 14.173zM855.63 252.623l8.135 14.173h16.271l8.136-14.173-8.136-14.173h-16.27l-8.136 14.173z" stroke-width="2.8" stroke-opacity=".075" stroke="#000" fill="#fff" opacity=".85"/><path d="M880.03 238.453l8.135 14.173h16.271l8.136-14.173-8.136-14.173h-16.27l-8.136 14.173zM904.44 252.623l8.135 14.173h16.271l8.136-14.173-8.136-14.173h-16.27l-8.136 14.173zM1.4 266.803l8.135 14.173h16.271l8.136-14.173-8.136-14.173H9.536L1.4 266.803z" stroke-width="2.8" stroke-opacity=".075" stroke="#000" fill="#fff" opacity=".85"/><path d="M25.806 280.973l8.135 14.173h16.271l8.136-14.173-8.136-14.173h-16.27l-8.136 14.173z" stroke-width="2.8" stroke-opacity=".075" stroke="#000" fill="#fff" opacity=".85"/><path d="M50.213 266.803l8.135 14.173H74.62l8.136-14.173-8.136-14.173H58.35l-8.136 14.173z" stroke-width="2.8" stroke-opacity=".075" stroke="#000" fill="#fff" opacity=".85"/><path d="M74.619 280.973l8.135 14.173h16.271l8.136-14.173-8.136-14.173h-16.27l-8.136 14.173z" stroke-width="2.8" stroke-opacity=".075" stroke="#000" fill="#fff" opacity=".85"/><path d="M99.025 266.803l8.135 14.173h16.271l8.136-14.173-8.136-14.173h-16.27l-8.136 14.173z" stroke-width="2.8" stroke-opacity=".075" stroke="#000" fill="#fff" opacity=".85"/><path d="M123.43 280.973l8.135 14.173h16.271l8.136-14.173-8.136-14.173h-16.27l-8.136 14.173zM147.84 266.803l8.135 14.173h16.271l8.136-14.173-8.136-14.173h-16.27l-8.136 14.173z" stroke-width="2.8" stroke-opacity=".075" stroke="#000" fill="#fff" opacity=".85"/><path d="M172.24 280.973l8.135 14.173h16.271l8.136-14.173-8.136-14.173h-16.27l-8.136 14.173zM196.65 266.803l8.135 14.173h16.271l8.136-14.173-8.136-14.173h-16.27l-8.136 14.173zM221.06 280.973l8.135 14.173h16.271l8.136-14.173-8.136-14.173h-16.27l-8.136 14.173z" stroke-width="2.8" stroke-opacity=".075" stroke="#000" fill="#fff" opacity=".85"/><path d="M245.46 266.803l8.135 14.173h16.271l8.136-14.173-8.136-14.173h-16.27l-8.136 14.173zM269.87 280.973l8.135 14.173h16.271l8.136-14.173-8.136-14.173h-16.27l-8.136 14.173zM294.28 266.803l8.135 14.173h16.271l8.136-14.173-8.136-14.173h-16.27l-8.136 14.173z" stroke-width="2.8" stroke-opacity=".075" stroke="#000" fill="#fff" opacity=".85"/><path d="M318.68 280.973l8.135 14.173h16.271l8.136-14.173-8.136-14.173h-16.27l-8.136 14.173zM343.09 266.803l8.135 14.173h16.271l8.136-14.173-8.136-14.173h-16.27l-8.136 14.173zM367.5 280.973l8.135 14.173h16.271l8.136-14.173-8.136-14.173h-16.27l-8.136 14.173z" stroke-width="2.8" stroke-opacity=".075" stroke="#000" fill="#fff" opacity=".85"/><path d="M391.9 266.803l8.135 14.173h16.271l8.136-14.173-8.136-14.173h-16.27l-8.136 14.173zM416.31 280.973l8.135 14.173h16.271l8.136-14.173-8.136-14.173h-16.27l-8.136 14.173zM440.72 266.803l8.135 14.173h16.271l8.136-14.173-8.136-14.173h-16.27l-8.136 14.173z" stroke-width="2.8" stroke-opacity=".075" stroke="#000" fill="#fff" opacity=".85"/><path d="M465.12 280.973l8.135 14.173h16.271l8.136-14.173-8.136-14.173h-16.27l-8.136 14.173zM489.53 266.803l8.135 14.173h16.271l8.136-14.173-8.136-14.173h-16.27l-8.136 14.173zM513.94 280.973l8.135 14.173h16.271l8.136-14.173-8.136-14.173h-16.27l-8.136 14.173z" stroke-width="2.8" stroke-opacity=".075" stroke="#000" fill="#fff" opacity=".85"/><path d="M538.34 266.803l8.135 14.173h16.271l8.136-14.173-8.136-14.173h-16.27l-8.136 14.173zM562.75 280.973l8.135 14.173h16.271l8.136-14.173-8.136-14.173h-16.27l-8.136 14.173zM587.16 266.803l8.135 14.173h16.271l8.136-14.173-8.136-14.173h-16.27l-8.136 14.173z" stroke-width="2.8" stroke-opacity=".075" stroke="#000" fill="#fff" opacity=".85"/><path d="M611.56 280.973l8.135 14.173h16.271l8.136-14.173-8.136-14.173h-16.27l-8.136 14.173zM635.97 266.803l8.135 14.173h16.271l8.136-14.173-8.136-14.173h-16.27l-8.136 14.173z" stroke-width="2.8" stroke-opacity=".075" stroke="#000" fill="#fff" opacity=".85"/><path d="M660.37 280.973l8.135 14.173h16.271l8.136-14.173-8.136-14.173h-16.27l-8.136 14.173zM684.78 266.803l8.135 14.173h16.271l8.136-14.173-8.136-14.173h-16.27l-8.136 14.173zM709.19 280.973l8.135 14.173h16.271l8.136-14.173-8.136-14.173h-16.27l-8.136 14.173z" stroke-width="2.8" stroke-opacity=".075" stroke="#000" fill="#fff" opacity=".85"/><path d="M733.59 266.803l8.135 14.173h16.271l8.136-14.173-8.136-14.173h-16.27l-8.136 14.173zM758 280.973l8.135 14.173h16.271l8.136-14.173-8.136-14.173h-16.27L758 280.973zM782.41 266.803l8.135 14.173h16.271l8.136-14.173-8.136-14.173h-16.27l-8.136 14.173z" stroke-width="2.8" stroke-opacity=".075" stroke="#000" fill="#fff" opacity=".85"/><path d="M806.81 280.973l8.135 14.173h16.271l8.136-14.173-8.136-14.173h-16.27l-8.136 14.173zM831.22 266.803l8.135 14.173h16.271l8.136-14.173-8.136-14.173h-16.27l-8.136 14.173zM855.63 280.973l8.135 14.173h16.271l8.136-14.173-8.136-14.173h-16.27l-8.136 14.173z" stroke-width="2.8" stroke-opacity=".075" stroke="#000" fill="#fff" opacity=".85"/><path d="M880.03 266.803l8.135 14.173h16.271l8.136-14.173-8.136-14.173h-16.27l-8.136 14.173zM904.44 280.973l8.135 14.173h16.271l8.136-14.173-8.136-14.173h-16.27l-8.136 14.173zM1.4 295.143l8.135 14.173h16.271l8.136-14.173-8.136-14.173H9.536L1.4 295.143zM25.806 309.323l8.135 14.173h16.271l8.136-14.173-8.136-14.173h-16.27l-8.136 14.173zM50.213 295.143l8.135 14.173H74.62l8.136-14.173-8.136-14.173H58.35l-8.136 14.173zM74.619 309.323l8.135 14.173h16.271l8.136-14.173-8.136-14.173h-16.27l-8.136 14.173zM99.025 295.143l8.135 14.173h16.271l8.136-14.173-8.136-14.173h-16.27l-8.136 14.173zM123.43 309.323l8.135 14.173h16.271l8.136-14.173-8.136-14.173h-16.27l-8.136 14.173zM147.84 295.143l8.135 14.173h16.271l8.136-14.173-8.136-14.173h-16.27l-8.136 14.173z" stroke-width="2.8" stroke-opacity=".075" stroke="#000" fill="#fff" opacity=".85"/><path d="M172.24 309.323l8.135 14.173h16.271l8.136-14.173-8.136-14.173h-16.27l-8.136 14.173zM196.65 295.143l8.135 14.173h16.271l8.136-14.173-8.136-14.173h-16.27l-8.136 14.173zM221.06 309.323l8.135 14.173h16.271l8.136-14.173-8.136-14.173h-16.27l-8.136 14.173z" stroke-width="2.8" stroke-opacity=".075" stroke="#000" fill="#fff" opacity=".85"/><path d="M245.46 295.143l8.135 14.173h16.271l8.136-14.173-8.136-14.173h-16.27l-8.136 14.173zM269.87 309.323l8.135 14.173h16.271l8.136-14.173-8.136-14.173h-16.27l-8.136 14.173zM294.28 295.143l8.135 14.173h16.271l8.136-14.173-8.136-14.173h-16.27l-8.136 14.173z" stroke-width="2.8" stroke-opacity=".075" stroke="#000" fill="#fff" opacity=".85"/><path d="M318.68 309.323l8.135 14.173h16.271l8.136-14.173-8.136-14.173h-16.27l-8.136 14.173zM343.09 295.143l8.135 14.173h16.271l8.136-14.173-8.136-14.173h-16.27l-8.136 14.173zM367.5 309.323l8.135 14.173h16.271l8.136-14.173-8.136-14.173h-16.27l-8.136 14.173z" stroke-width="2.8" stroke-opacity=".075" stroke="#000" fill="#fff" opacity=".85"/><path d="M0 14.173l8.135 14.173h16.271l8.136-14.173L24.406 0H8.136z" transform="matrix(1 0 0 1.00014 391.9 280.97)" stroke-width="2.8" stroke-opacity=".1" stroke="#000" fill="#fff" opacity=".85"/><path d="M416.31 309.323l8.135 14.173h16.271l8.136-14.173-8.136-14.173h-16.27l-8.136 14.173zM440.72 295.143l8.135 14.173h16.271l8.136-14.173-8.136-14.173h-16.27l-8.136 14.173z" stroke-width="2.8" stroke-opacity=".075" stroke="#000" fill="#fff" opacity=".85"/><path d="M465.12 309.323l8.135 14.173h16.271l8.136-14.173-8.136-14.173h-16.27l-8.136 14.173zM489.53 295.143l8.135 14.173h16.271l8.136-14.173-8.136-14.173h-16.27l-8.136 14.173zM513.94 309.323l8.135 14.173h16.271l8.136-14.173-8.136-14.173h-16.27l-8.136 14.173z" stroke-width="2.8" stroke-opacity=".075" stroke="#000" fill="#fff" opacity=".85"/><path d="M538.34 295.143l8.135 14.173h16.271l8.136-14.173-8.136-14.173h-16.27l-8.136 14.173zM562.75 309.323l8.135 14.173h16.271l8.136-14.173-8.136-14.173h-16.27l-8.136 14.173zM587.16 295.143l8.135 14.173h16.271l8.136-14.173-8.136-14.173h-16.27l-8.136 14.173z" stroke-width="2.8" stroke-opacity=".075" stroke="#000" fill="#fff" opacity=".85"/><path d="M611.56 309.323l8.135 14.173h16.271l8.136-14.173-8.136-14.173h-16.27l-8.136 14.173zM635.97 295.143l8.135 14.173h16.271l8.136-14.173-8.136-14.173h-16.27l-8.136 14.173z" stroke-width="2.8" stroke-opacity=".075" stroke="#000" fill="#fff" opacity=".85"/><path d="M660.37 309.323l8.135 14.173h16.271l8.136-14.173-8.136-14.173h-16.27l-8.136 14.173zM684.78 295.143l8.135 14.173h16.271l8.136-14.173-8.136-14.173h-16.27l-8.136 14.173zM709.19 309.323l8.135 14.173h16.271l8.136-14.173-8.136-14.173h-16.27l-8.136 14.173z" stroke-width="2.8" stroke-opacity=".075" stroke="#000" fill="#fff" opacity=".85"/><path d="M733.59 295.143l8.135 14.173h16.271l8.136-14.173-8.136-14.173h-16.27l-8.136 14.173zM758 309.323l8.135 14.173h16.271l8.136-14.173-8.136-14.173h-16.27L758 309.323zM782.41 295.143l8.135 14.173h16.271l8.136-14.173-8.136-14.173h-16.27l-8.136 14.173z" stroke-width="2.8" stroke-opacity=".075" stroke="#000" fill="#fff" opacity=".85"/><path d="M806.81 309.323l8.135 14.173h16.271l8.136-14.173-8.136-14.173h-16.27l-8.136 14.173zM831.22 295.143l8.135 14.173h16.271l8.136-14.173-8.136-14.173h-16.27l-8.136 14.173zM855.63 309.323l8.135 14.173h16.271l8.136-14.173-8.136-14.173h-16.27l-8.136 14.173z" stroke-width="2.8" stroke-opacity=".075" stroke="#000" fill="#fff" opacity=".85"/><path d="M880.03 295.143l8.135 14.173h16.271l8.136-14.173-8.136-14.173h-16.27l-8.136 14.173zM904.44 309.323l8.135 14.173h16.271l8.136-14.173-8.136-14.173h-16.27l-8.136 14.173zM1.4 323.493l8.135 14.173h16.271l8.136-14.173-8.136-14.173H9.536L1.4 323.493z" stroke-width="2.8" stroke-opacity=".075" stroke="#000" fill="#fff" opacity=".85"/><path d="M25.806 337.663l8.135 14.173h16.271l8.136-14.173-8.136-14.173h-16.27l-8.136 14.173z" stroke-width="2.8" stroke-opacity=".075" stroke="#000" fill="#fff" opacity=".85"/><path d="M50.213 323.493l8.135 14.173H74.62l8.136-14.173-8.136-14.173H58.35l-8.136 14.173z" stroke-width="2.8" stroke-opacity=".075" stroke="#000" fill="#fff" opacity=".85"/><path d="M74.619 337.663l8.135 14.173h16.271l8.136-14.173-8.136-14.173h-16.27l-8.136 14.173z" stroke-width="2.8" stroke-opacity=".075" stroke="#000" fill="#fff" opacity=".85"/><path d="M99.025 323.493l8.135 14.173h16.271l8.136-14.173-8.136-14.173h-16.27l-8.136 14.173z" stroke-width="2.8" stroke-opacity=".075" stroke="#000" fill="#fff" opacity=".85"/><path d="M123.43 337.663l8.135 14.173h16.271l8.136-14.173-8.136-14.173h-16.27l-8.136 14.173zM147.84 323.493l8.135 14.173h16.271l8.136-14.173-8.136-14.173h-16.27l-8.136 14.173z" stroke-width="2.8" stroke-opacity=".075" stroke="#000" fill="#fff" opacity=".85"/><path d="M172.24 337.663l8.135 14.173h16.271l8.136-14.173-8.136-14.173h-16.27l-8.136 14.173zM196.65 323.493l8.135 14.173h16.271l8.136-14.173-8.136-14.173h-16.27l-8.136 14.173zM221.06 337.663l8.135 14.173h16.271l8.136-14.173-8.136-14.173h-16.27l-8.136 14.173z" stroke-width="2.8" stroke-opacity=".075" stroke="#000" fill="#fff" opacity=".85"/><path d="M245.46 323.493l8.135 14.173h16.271l8.136-14.173-8.136-14.173h-16.27l-8.136 14.173zM269.87 337.663l8.135 14.173h16.271l8.136-14.173-8.136-14.173h-16.27l-8.136 14.173zM294.28 323.493l8.135 14.173h16.271l8.136-14.173-8.136-14.173h-16.27l-8.136 14.173z" stroke-width="2.8" stroke-opacity=".075" stroke="#000" fill="#fff" opacity=".85"/><path d="M318.68 337.663l8.135 14.173h16.271l8.136-14.173-8.136-14.173h-16.27l-8.136 14.173zM343.09 323.493l8.135 14.173h16.271l8.136-14.173-8.136-14.173h-16.27l-8.136 14.173zM367.5 337.663l8.135 14.173h16.271l8.136-14.173-8.136-14.173h-16.27l-8.136 14.173z" stroke-width="2.8" stroke-opacity=".075" stroke="#000" fill="#fff" opacity=".85"/><path d="M391.9 323.493l8.135 14.173h16.271l8.136-14.173-8.136-14.173h-16.27l-8.136 14.173zM416.31 337.663l8.135 14.173h16.271l8.136-14.173-8.136-14.173h-16.27l-8.136 14.173zM440.72 323.493l8.135 14.173h16.271l8.136-14.173-8.136-14.173h-16.27l-8.136 14.173z" stroke-width="2.8" stroke-opacity=".075" stroke="#000" fill="#fff" opacity=".85"/><path d="M465.12 337.663l8.135 14.173h16.271l8.136-14.173-8.136-14.173h-16.27l-8.136 14.173zM489.53 323.493l8.135 14.173h16.271l8.136-14.173-8.136-14.173h-16.27l-8.136 14.173zM513.94 337.663l8.135 14.173h16.271l8.136-14.173-8.136-14.173h-16.27l-8.136 14.173z" stroke-width="2.8" stroke-opacity=".075" stroke="#000" fill="#fff" opacity=".85"/><path d="M538.34 323.493l8.135 14.173h16.271l8.136-14.173-8.136-14.173h-16.27l-8.136 14.173zM562.75 337.663l8.135 14.173h16.271l8.136-14.173-8.136-14.173h-16.27l-8.136 14.173zM587.16 323.493l8.135 14.173h16.271l8.136-14.173-8.136-14.173h-16.27l-8.136 14.173z" stroke-width="2.8" stroke-opacity=".075" stroke="#000" fill="#fff" opacity=".85"/><path d="M611.56 337.663l8.135 14.173h16.271l8.136-14.173-8.136-14.173h-16.27l-8.136 14.173zM635.97 323.493l8.135 14.173h16.271l8.136-14.173-8.136-14.173h-16.27l-8.136 14.173z" stroke-width="2.8" stroke-opacity=".075" stroke="#000" fill="#fff" opacity=".85"/><path d="M660.37 337.663l8.135 14.173h16.271l8.136-14.173-8.136-14.173h-16.27l-8.136 14.173zM684.78 323.493l8.135 14.173h16.271l8.136-14.173-8.136-14.173h-16.27l-8.136 14.173zM709.19 337.663l8.135 14.173h16.271l8.136-14.173-8.136-14.173h-16.27l-8.136 14.173z" stroke-width="2.8" stroke-opacity=".075" stroke="#000" fill="#fff" opacity=".85"/><path d="M733.59 323.493l8.135 14.173h16.271l8.136-14.173-8.136-14.173h-16.27l-8.136 14.173zM758 337.663l8.135 14.173h16.271l8.136-14.173-8.136-14.173h-16.27L758 337.663zM782.41 323.493l8.135 14.173h16.271l8.136-14.173-8.136-14.173h-16.27l-8.136 14.173z" stroke-width="2.8" stroke-opacity=".075" stroke="#000" fill="#fff" opacity=".85"/><path d="M806.81 337.663l8.135 14.173h16.271l8.136-14.173-8.136-14.173h-16.27l-8.136 14.173zM831.22 323.493l8.135 14.173h16.271l8.136-14.173-8.136-14.173h-16.27l-8.136 14.173zM855.63 337.663l8.135 14.173h16.271l8.136-14.173-8.136-14.173h-16.27l-8.136 14.173z" stroke-width="2.8" stroke-opacity=".075" stroke="#000" fill="#fff" opacity=".85"/><path d="M880.03 323.493l8.135 14.173h16.271l8.136-14.173-8.136-14.173h-16.27l-8.136 14.173zM904.44 337.663l8.135 14.173h16.271l8.136-14.173-8.136-14.173h-16.27l-8.136 14.173zM1.4 351.833l8.135 14.173h16.271l8.136-14.173-8.136-14.173H9.536L1.4 351.833zM25.806 366.013l8.135 14.173h16.271l8.136-14.173-8.136-14.173h-16.27l-8.136 14.173zM50.213 351.833l8.135 14.173H74.62l8.136-14.173-8.136-14.173H58.35l-8.136 14.173zM74.619 366.013l8.135 14.173h16.271l8.136-14.173-8.136-14.173h-16.27l-8.136 14.173zM99.025 351.833l8.135 14.173h16.271l8.136-14.173-8.136-14.173h-16.27l-8.136 14.173zM123.43 366.013l8.135 14.173h16.271l8.136-14.173-8.136-14.173h-16.27l-8.136 14.173zM147.84 351.833l8.135 14.173h16.271l8.136-14.173-8.136-14.173h-16.27l-8.136 14.173z" stroke-width="2.8" stroke-opacity=".075" stroke="#000" fill="#fff" opacity=".85"/><path d="M172.24 366.013l8.135 14.173h16.271l8.136-14.173-8.136-14.173h-16.27l-8.136 14.173zM196.65 351.833l8.135 14.173h16.271l8.136-14.173-8.136-14.173h-16.27l-8.136 14.173zM221.06 366.013l8.135 14.173h16.271l8.136-14.173-8.136-14.173h-16.27l-8.136 14.173z" stroke-width="2.8" stroke-opacity=".075" stroke="#000" fill="#fff" opacity=".85"/><path d="M245.46 351.833l8.135 14.173h16.271l8.136-14.173-8.136-14.173h-16.27l-8.136 14.173zM269.87 366.013l8.135 14.173h16.271l8.136-14.173-8.136-14.173h-16.27l-8.136 14.173zM294.28 351.833l8.135 14.173h16.271l8.136-14.173-8.136-14.173h-16.27l-8.136 14.173z" stroke-width="2.8" stroke-opacity=".075" stroke="#000" fill="#fff" opacity=".85"/><path d="M318.68 366.013l8.135 14.173h16.271l8.136-14.173-8.136-14.173h-16.27l-8.136 14.173zM343.09 351.833l8.135 14.173h16.271l8.136-14.173-8.136-14.173h-16.27l-8.136 14.173zM367.5 366.013l8.135 14.173h16.271l8.136-14.173-8.136-14.173h-16.27l-8.136 14.173z" stroke-width="2.8" stroke-opacity=".075" stroke="#000" fill="#fff" opacity=".85"/><path d="M391.9 351.833l8.135 14.173h16.271l8.136-14.173-8.136-14.173h-16.27l-8.136 14.173zM416.31 366.013l8.135 14.173h16.271l8.136-14.173-8.136-14.173h-16.27l-8.136 14.173zM440.72 351.833l8.135 14.173h16.271l8.136-14.173-8.136-14.173h-16.27l-8.136 14.173z" stroke-width="2.8" stroke-opacity=".075" stroke="#000" fill="#fff" opacity=".85"/><path d="M465.12 366.013l8.135 14.173h16.271l8.136-14.173-8.136-14.173h-16.27l-8.136 14.173zM489.53 351.833l8.135 14.173h16.271l8.136-14.173-8.136-14.173h-16.27l-8.136 14.173zM513.94 366.013l8.135 14.173h16.271l8.136-14.173-8.136-14.173h-16.27l-8.136 14.173z" stroke-width="2.8" stroke-opacity=".075" stroke="#000" fill="#fff" opacity=".85"/><path d="M538.34 351.833l8.135 14.173h16.271l8.136-14.173-8.136-14.173h-16.27l-8.136 14.173zM562.75 366.013l8.135 14.173h16.271l8.136-14.173-8.136-14.173h-16.27l-8.136 14.173zM587.16 351.833l8.135 14.173h16.271l8.136-14.173-8.136-14.173h-16.27l-8.136 14.173z" stroke-width="2.8" stroke-opacity=".075" stroke="#000" fill="#fff" opacity=".85"/><path d="M611.56 366.013l8.135 14.173h16.271l8.136-14.173-8.136-14.173h-16.27l-8.136 14.173zM635.97 351.833l8.135 14.173h16.271l8.136-14.173-8.136-14.173h-16.27l-8.136 14.173z" stroke-width="2.8" stroke-opacity=".075" stroke="#000" fill="#fff" opacity=".85"/><path d="M660.37 366.013l8.135 14.173h16.271l8.136-14.173-8.136-14.173h-16.27l-8.136 14.173zM684.78 351.833l8.135 14.173h16.271l8.136-14.173-8.136-14.173h-16.27l-8.136 14.173zM709.19 366.013l8.135 14.173h16.271l8.136-14.173-8.136-14.173h-16.27l-8.136 14.173z" stroke-width="2.8" stroke-opacity=".075" stroke="#000" fill="#fff" opacity=".85"/><path d="M733.59 351.833l8.135 14.173h16.271l8.136-14.173-8.136-14.173h-16.27l-8.136 14.173zM758 366.013l8.135 14.173h16.271l8.136-14.173-8.136-14.173h-16.27L758 366.013zM782.41 351.833l8.135 14.173h16.271l8.136-14.173-8.136-14.173h-16.27l-8.136 14.173z" stroke-width="2.8" stroke-opacity=".075" stroke="#000" fill="#fff" opacity=".85"/><path d="M806.81 366.013l8.135 14.173h16.271l8.136-14.173-8.136-14.173h-16.27l-8.136 14.173zM831.22 351.833l8.135 14.173h16.271l8.136-14.173-8.136-14.173h-16.27l-8.136 14.173zM855.63 366.013l8.135 14.173h16.271l8.136-14.173-8.136-14.173h-16.27l-8.136 14.173z" stroke-width="2.8" stroke-opacity=".075" stroke="#000" fill="#fff" opacity=".85"/><path d="M880.03 351.833l8.135 14.173h16.271l8.136-14.173-8.136-14.173h-16.27l-8.136 14.173zM904.44 366.013l8.135 14.173h16.271l8.136-14.173-8.136-14.173h-16.27l-8.136 14.173zM1.4 380.183l8.135 14.173h16.271l8.136-14.173-8.136-14.173H9.536L1.4 380.183z" stroke-width="2.8" stroke-opacity=".075" stroke="#000" fill="#fff" opacity=".85"/><path d="M25.806 394.353l8.135 14.173h16.271l8.136-14.173-8.136-14.173h-16.27l-8.136 14.173z" stroke-width="2.8" stroke-opacity=".075" stroke="#000" fill="#fff" opacity=".85"/><path d="M50.213 380.183l8.135 14.173H74.62l8.136-14.173-8.136-14.173H58.35l-8.136 14.173z" stroke-width="2.8" stroke-opacity=".075" stroke="#000" fill="#fff" opacity=".85"/><path d="M74.619 394.353l8.135 14.173h16.271l8.136-14.173-8.136-14.173h-16.27l-8.136 14.173z" stroke-width="2.8" stroke-opacity=".075" stroke="#000" fill="#fff" opacity=".85"/><path d="M99.025 380.183l8.135 14.173h16.271l8.136-14.173-8.136-14.173h-16.27l-8.136 14.173z" stroke-width="2.8" stroke-opacity=".075" stroke="#000" fill="#fff" opacity=".85"/><path d="M123.43 394.353l8.135 14.173h16.271l8.136-14.173-8.136-14.173h-16.27l-8.136 14.173zM147.84 380.183l8.135 14.173h16.271l8.136-14.173-8.136-14.173h-16.27l-8.136 14.173z" stroke-width="2.8" stroke-opacity=".075" stroke="#000" fill="#fff" opacity=".85"/><path d="M172.24 394.353l8.135 14.173h16.271l8.136-14.173-8.136-14.173h-16.27l-8.136 14.173zM196.65 380.183l8.135 14.173h16.271l8.136-14.173-8.136-14.173h-16.27l-8.136 14.173zM221.06 394.353l8.135 14.173h16.271l8.136-14.173-8.136-14.173h-16.27l-8.136 14.173z" stroke-width="2.8" stroke-opacity=".075" stroke="#000" fill="#fff" opacity=".85"/><path d="M245.46 380.183l8.135 14.173h16.271l8.136-14.173-8.136-14.173h-16.27l-8.136 14.173zM269.87 394.353l8.135 14.173h16.271l8.136-14.173-8.136-14.173h-16.27l-8.136 14.173zM294.28 380.183l8.135 14.173h16.271l8.136-14.173-8.136-14.173h-16.27l-8.136 14.173z" stroke-width="2.8" stroke-opacity=".075" stroke="#000" fill="#fff" opacity=".85"/><path d="M318.68 394.353l8.135 14.173h16.271l8.136-14.173-8.136-14.173h-16.27l-8.136 14.173zM343.09 380.183l8.135 14.173h16.271l8.136-14.173-8.136-14.173h-16.27l-8.136 14.173zM367.5 394.353l8.135 14.173h16.271l8.136-14.173-8.136-14.173h-16.27l-8.136 14.173z" stroke-width="2.8" stroke-opacity=".075" stroke="#000" fill="#fff" opacity=".85"/><path d="M391.9 380.183l8.135 14.173h16.271l8.136-14.173-8.136-14.173h-16.27l-8.136 14.173zM416.31 394.353l8.135 14.173h16.271l8.136-14.173-8.136-14.173h-16.27l-8.136 14.173zM440.72 380.183l8.135 14.173h16.271l8.136-14.173-8.136-14.173h-16.27l-8.136 14.173z" stroke-width="2.8" stroke-opacity=".075" stroke="#000" fill="#fff" opacity=".85"/><path d="M465.12 394.353l8.135 14.173h16.271l8.136-14.173-8.136-14.173h-16.27l-8.136 14.173zM489.53 380.183l8.135 14.173h16.271l8.136-14.173-8.136-14.173h-16.27l-8.136 14.173zM513.94 394.353l8.135 14.173h16.271l8.136-14.173-8.136-14.173h-16.27l-8.136 14.173z" stroke-width="2.8" stroke-opacity=".075" stroke="#000" fill="#fff" opacity=".85"/><path d="M538.34 380.183l8.135 14.173h16.271l8.136-14.173-8.136-14.173h-16.27l-8.136 14.173zM562.75 394.353l8.135 14.173h16.271l8.136-14.173-8.136-14.173h-16.27l-8.136 14.173zM587.16 380.183l8.135 14.173h16.271l8.136-14.173-8.136-14.173h-16.27l-8.136 14.173z" stroke-width="2.8" stroke-opacity=".075" stroke="#000" fill="#fff" opacity=".85"/><path d="M611.56 394.353l8.135 14.173h16.271l8.136-14.173-8.136-14.173h-16.27l-8.136 14.173zM635.97 380.183l8.135 14.173h16.271l8.136-14.173-8.136-14.173h-16.27l-8.136 14.173z" stroke-width="2.8" stroke-opacity=".075" stroke="#000" fill="#fff" opacity=".85"/><path d="M660.37 394.353l8.135 14.173h16.271l8.136-14.173-8.136-14.173h-16.27l-8.136 14.173zM684.78 380.183l8.135 14.173h16.271l8.136-14.173-8.136-14.173h-16.27l-8.136 14.173zM709.19 394.353l8.135 14.173h16.271l8.136-14.173-8.136-14.173h-16.27l-8.136 14.173z" stroke-width="2.8" stroke-opacity=".075" stroke="#000" fill="#fff" opacity=".85"/><path d="M733.59 380.183l8.135 14.173h16.271l8.136-14.173-8.136-14.173h-16.27l-8.136 14.173zM758 394.353l8.135 14.173h16.271l8.136-14.173-8.136-14.173h-16.27L758 394.353zM782.41 380.183l8.135 14.173h16.271l8.136-14.173-8.136-14.173h-16.27l-8.136 14.173z" stroke-width="2.8" stroke-opacity=".075" stroke="#000" fill="#fff" opacity=".85"/><path d="M806.81 394.353l8.135 14.173h16.271l8.136-14.173-8.136-14.173h-16.27l-8.136 14.173zM831.22 380.183l8.135 14.173h16.271l8.136-14.173-8.136-14.173h-16.27l-8.136 14.173zM855.63 394.353l8.135 14.173h16.271l8.136-14.173-8.136-14.173h-16.27l-8.136 14.173z" stroke-width="2.8" stroke-opacity=".075" stroke="#000" fill="#fff" opacity=".85"/><path d="M880.03 380.183l8.135 14.173h16.271l8.136-14.173-8.136-14.173h-16.27l-8.136 14.173zM904.44 394.353l8.135 14.173h16.271l8.136-14.173-8.136-14.173h-16.27l-8.136 14.173zM1.4 408.533l8.135 14.173h16.271l8.136-14.173-8.136-14.173H9.536L1.4 408.533z" stroke-width="2.8" stroke-opacity=".075" stroke="#000" fill="#fff" opacity=".85"/><path d="M25.806 422.703l8.135 14.173h16.271l8.136-14.173-8.136-14.173h-16.27l-8.136 14.173z" stroke-width="2.8" stroke-opacity=".075" stroke="#000" fill="#fff" opacity=".85"/><path d="M50.213 408.533l8.135 14.173H74.62l8.136-14.173-8.136-14.173H58.35l-8.136 14.173z" stroke-width="2.8" stroke-opacity=".075" stroke="#000" fill="#fff" opacity=".85"/><path d="M74.619 422.703l8.135 14.173h16.271l8.136-14.173-8.136-14.173h-16.27l-8.136 14.173z" stroke-width="2.8" stroke-opacity=".075" stroke="#000" fill="#fff" opacity=".85"/><path d="M99.025 408.533l8.135 14.173h16.271l8.136-14.173-8.136-14.173h-16.27l-8.136 14.173z" stroke-width="2.8" stroke-opacity=".075" stroke="#000" fill="#fff" opacity=".85"/><path d="M123.43 422.703l8.135 14.173h16.271l8.136-14.173-8.136-14.173h-16.27l-8.136 14.173zM147.84 408.533l8.135 14.173h16.271l8.136-14.173-8.136-14.173h-16.27l-8.136 14.173z" stroke-width="2.8" stroke-opacity=".075" stroke="#000" fill="#fff" opacity=".85"/><path d="M172.24 422.703l8.135 14.173h16.271l8.136-14.173-8.136-14.173h-16.27l-8.136 14.173zM196.65 408.533l8.135 14.173h16.271l8.136-14.173-8.136-14.173h-16.27l-8.136 14.173zM221.06 422.703l8.135 14.173h16.271l8.136-14.173-8.136-14.173h-16.27l-8.136 14.173z" stroke-width="2.8" stroke-opacity=".075" stroke="#000" fill="#fff" opacity=".85"/><path d="M245.46 408.533l8.135 14.173h16.271l8.136-14.173-8.136-14.173h-16.27l-8.136 14.173zM269.87 422.703l8.135 14.173h16.271l8.136-14.173-8.136-14.173h-16.27l-8.136 14.173zM294.28 408.533l8.135 14.173h16.271l8.136-14.173-8.136-14.173h-16.27l-8.136 14.173z" stroke-width="2.8" stroke-opacity=".075" stroke="#000" fill="#fff" opacity=".85"/><path d="M318.68 422.703l8.135 14.173h16.271l8.136-14.173-8.136-14.173h-16.27l-8.136 14.173zM343.09 408.533l8.135 14.173h16.271l8.136-14.173-8.136-14.173h-16.27l-8.136 14.173zM367.5 422.703l8.135 14.173h16.271l8.136-14.173-8.136-14.173h-16.27l-8.136 14.173z" stroke-width="2.8" stroke-opacity=".075" stroke="#000" fill="#fff" opacity=".85"/><path d="M391.9 408.533l8.135 14.173h16.271l8.136-14.173-8.136-14.173h-16.27l-8.136 14.173zM416.31 422.703l8.135 14.173h16.271l8.136-14.173-8.136-14.173h-16.27l-8.136 14.173zM440.72 408.533l8.135 14.173h16.271l8.136-14.173-8.136-14.173h-16.27l-8.136 14.173z" stroke-width="2.8" stroke-opacity=".075" stroke="#000" fill="#fff" opacity=".85"/><path d="M465.12 422.703l8.135 14.173h16.271l8.136-14.173-8.136-14.173h-16.27l-8.136 14.173zM489.53 408.533l8.135 14.173h16.271l8.136-14.173-8.136-14.173h-16.27l-8.136 14.173zM513.94 422.703l8.135 14.173h16.271l8.136-14.173-8.136-14.173h-16.27l-8.136 14.173z" stroke-width="2.8" stroke-opacity=".075" stroke="#000" fill="#fff" opacity=".85"/><path d="M538.34 408.533l8.135 14.173h16.271l8.136-14.173-8.136-14.173h-16.27l-8.136 14.173zM562.75 422.703l8.135 14.173h16.271l8.136-14.173-8.136-14.173h-16.27l-8.136 14.173zM587.16 408.533l8.135 14.173h16.271l8.136-14.173-8.136-14.173h-16.27l-8.136 14.173z" stroke-width="2.8" stroke-opacity=".075" stroke="#000" fill="#fff" opacity=".85"/><path d="M611.56 422.703l8.135 14.173h16.271l8.136-14.173-8.136-14.173h-16.27l-8.136 14.173zM635.97 408.533l8.135 14.173h16.271l8.136-14.173-8.136-14.173h-16.27l-8.136 14.173z" stroke-width="2.8" stroke-opacity=".075" stroke="#000" fill="#fff" opacity=".85"/><path d="M660.37 422.703l8.135 14.173h16.271l8.136-14.173-8.136-14.173h-16.27l-8.136 14.173zM684.78 408.533l8.135 14.173h16.271l8.136-14.173-8.136-14.173h-16.27l-8.136 14.173zM709.19 422.703l8.135 14.173h16.271l8.136-14.173-8.136-14.173h-16.27l-8.136 14.173z" stroke-width="2.8" stroke-opacity=".075" stroke="#000" fill="#fff" opacity=".85"/><path d="M733.59 408.533l8.135 14.173h16.271l8.136-14.173-8.136-14.173h-16.27l-8.136 14.173zM758 422.703l8.135 14.173h16.271l8.136-14.173-8.136-14.173h-16.27L758 422.703zM782.41 408.533l8.135 14.173h16.271l8.136-14.173-8.136-14.173h-16.27l-8.136 14.173z" stroke-width="2.8" stroke-opacity=".075" stroke="#000" fill="#fff" opacity=".85"/><path d="M806.81 422.703l8.135 14.173h16.271l8.136-14.173-8.136-14.173h-16.27l-8.136 14.173zM831.22 408.533l8.135 14.173h16.271l8.136-14.173-8.136-14.173h-16.27l-8.136 14.173zM855.63 422.703l8.135 14.173h16.271l8.136-14.173-8.136-14.173h-16.27l-8.136 14.173z" stroke-width="2.8" stroke-opacity=".075" stroke="#000" fill="#fff" opacity=".85"/><path d="M880.03 408.533l8.135 14.173h16.271l8.136-14.173-8.136-14.173h-16.27l-8.136 14.173zM904.44 422.703l8.135 14.173h16.271l8.136-14.173-8.136-14.173h-16.27l-8.136 14.173zM1.4 436.873l8.135 14.173h16.271l8.136-14.173-8.136-14.173H9.536L1.4 436.873zM25.806 451.053l8.135 14.173h16.271l8.136-14.173-8.136-14.173h-16.27l-8.136 14.173zM50.213 436.873l8.135 14.173H74.62l8.136-14.173-8.136-14.173H58.35l-8.136 14.173zM74.619 451.053l8.135 14.173h16.271l8.136-14.173-8.136-14.173h-16.27l-8.136 14.173zM99.025 436.873l8.135 14.173h16.271l8.136-14.173-8.136-14.173h-16.27l-8.136 14.173zM123.43 451.053l8.135 14.173h16.271l8.136-14.173-8.136-14.173h-16.27l-8.136 14.173zM147.84 436.873l8.135 14.173h16.271l8.136-14.173-8.136-14.173h-16.27l-8.136 14.173z" stroke-width="2.8" stroke-opacity=".075" stroke="#000" fill="#fff" opacity=".85"/><path d="M172.24 451.053l8.135 14.173h16.271l8.136-14.173-8.136-14.173h-16.27l-8.136 14.173zM196.65 436.873l8.135 14.173h16.271l8.136-14.173-8.136-14.173h-16.27l-8.136 14.173zM221.06 451.053l8.135 14.173h16.271l8.136-14.173-8.136-14.173h-16.27l-8.136 14.173z" stroke-width="2.8" stroke-opacity=".075" stroke="#000" fill="#fff" opacity=".85"/><path d="M245.46 436.873l8.135 14.173h16.271l8.136-14.173-8.136-14.173h-16.27l-8.136 14.173zM269.87 451.053l8.135 14.173h16.271l8.136-14.173-8.136-14.173h-16.27l-8.136 14.173zM294.28 436.873l8.135 14.173h16.271l8.136-14.173-8.136-14.173h-16.27l-8.136 14.173z" stroke-width="2.8" stroke-opacity=".075" stroke="#000" fill="#fff" opacity=".85"/><path d="M318.68 451.053l8.135 14.173h16.271l8.136-14.173-8.136-14.173h-16.27l-8.136 14.173zM343.09 436.873l8.135 14.173h16.271l8.136-14.173-8.136-14.173h-16.27l-8.136 14.173zM367.5 451.053l8.135 14.173h16.271l8.136-14.173-8.136-14.173h-16.27l-8.136 14.173z" stroke-width="2.8" stroke-opacity=".075" stroke="#000" fill="#fff" opacity=".85"/><path d="M391.9 436.873l8.135 14.173h16.271l8.136-14.173-8.136-14.173h-16.27l-8.136 14.173zM416.31 451.053l8.135 14.173h16.271l8.136-14.173-8.136-14.173h-16.27l-8.136 14.173zM440.72 436.873l8.135 14.173h16.271l8.136-14.173-8.136-14.173h-16.27l-8.136 14.173z" stroke-width="2.8" stroke-opacity=".075" stroke="#000" fill="#fff" opacity=".85"/><path d="M465.12 451.053l8.135 14.173h16.271l8.136-14.173-8.136-14.173h-16.27l-8.136 14.173zM489.53 436.873l8.135 14.173h16.271l8.136-14.173-8.136-14.173h-16.27l-8.136 14.173zM513.94 451.053l8.135 14.173h16.271l8.136-14.173-8.136-14.173h-16.27l-8.136 14.173z" stroke-width="2.8" stroke-opacity=".075" stroke="#000" fill="#fff" opacity=".85"/><path d="M538.34 436.873l8.135 14.173h16.271l8.136-14.173-8.136-14.173h-16.27l-8.136 14.173zM562.75 451.053l8.135 14.173h16.271l8.136-14.173-8.136-14.173h-16.27l-8.136 14.173zM587.16 436.873l8.135 14.173h16.271l8.136-14.173-8.136-14.173h-16.27l-8.136 14.173z" stroke-width="2.8" stroke-opacity=".075" stroke="#000" fill="#fff" opacity=".85"/><path d="M611.56 451.053l8.135 14.173h16.271l8.136-14.173-8.136-14.173h-16.27l-8.136 14.173zM635.97 436.873l8.135 14.173h16.271l8.136-14.173-8.136-14.173h-16.27l-8.136 14.173z" stroke-width="2.8" stroke-opacity=".075" stroke="#000" fill="#fff" opacity=".85"/><path d="M660.37 451.053l8.135 14.173h16.271l8.136-14.173-8.136-14.173h-16.27l-8.136 14.173zM684.78 436.873l8.135 14.173h16.271l8.136-14.173-8.136-14.173h-16.27l-8.136 14.173zM709.19 451.053l8.135 14.173h16.271l8.136-14.173-8.136-14.173h-16.27l-8.136 14.173z" stroke-width="2.8" stroke-opacity=".075" stroke="#000" fill="#fff" opacity=".85"/><path d="M733.59 436.873l8.135 14.173h16.271l8.136-14.173-8.136-14.173h-16.27l-8.136 14.173zM758 451.053l8.135 14.173h16.271l8.136-14.173-8.136-14.173h-16.27L758 451.053zM782.41 436.873l8.135 14.173h16.271l8.136-14.173-8.136-14.173h-16.27l-8.136 14.173z" stroke-width="2.8" stroke-opacity=".075" stroke="#000" fill="#fff" opacity=".85"/><path d="M806.81 451.053l8.135 14.173h16.271l8.136-14.173-8.136-14.173h-16.27l-8.136 14.173zM831.22 436.873l8.135 14.173h16.271l8.136-14.173-8.136-14.173h-16.27l-8.136 14.173zM855.63 451.053l8.135 14.173h16.271l8.136-14.173-8.136-14.173h-16.27l-8.136 14.173z" stroke-width="2.8" stroke-opacity=".075" stroke="#000" fill="#fff" opacity=".85"/><path d="M880.03 436.873l8.135 14.173h16.271l8.136-14.173-8.136-14.173h-16.27l-8.136 14.173zM904.44 451.053l8.135 14.173h16.271l8.136-14.173-8.136-14.173h-16.27l-8.136 14.173zM1.4 465.223l8.135 14.173h16.271l8.136-14.173-8.136-14.173H9.536L1.4 465.223z" stroke-width="2.8" stroke-opacity=".075" stroke="#000" fill="#fff" opacity=".85"/><path d="M25.806 479.393l8.135 14.173h16.271l8.136-14.173-8.136-14.173h-16.27l-8.136 14.173z" stroke-width="2.8" stroke-opacity=".075" stroke="#000" fill="#fff" opacity=".85"/><path d="M50.213 465.223l8.135 14.173H74.62l8.136-14.173-8.136-14.173H58.35l-8.136 14.173z" stroke-width="2.8" stroke-opacity=".075" stroke="#000" fill="#fff" opacity=".85"/><path d="M74.619 479.393l8.135 14.173h16.271l8.136-14.173-8.136-14.173h-16.27l-8.136 14.173z" stroke-width="2.8" stroke-opacity=".075" stroke="#000" fill="#fff" opacity=".85"/><path d="M99.025 465.223l8.135 14.173h16.271l8.136-14.173-8.136-14.173h-16.27l-8.136 14.173z" stroke-width="2.8" stroke-opacity=".075" stroke="#000" fill="#fff" opacity=".85"/><path d="M123.43 479.393l8.135 14.173h16.271l8.136-14.173-8.136-14.173h-16.27l-8.136 14.173zM147.84 465.223l8.135 14.173h16.271l8.136-14.173-8.136-14.173h-16.27l-8.136 14.173z" stroke-width="2.8" stroke-opacity=".075" stroke="#000" fill="#fff" opacity=".85"/><path d="M172.24 479.393l8.135 14.173h16.271l8.136-14.173-8.136-14.173h-16.27l-8.136 14.173zM196.65 465.223l8.135 14.173h16.271l8.136-14.173-8.136-14.173h-16.27l-8.136 14.173zM221.06 479.393l8.135 14.173h16.271l8.136-14.173-8.136-14.173h-16.27l-8.136 14.173z" stroke-width="2.8" stroke-opacity=".075" stroke="#000" fill="#fff" opacity=".85"/><path d="M245.46 465.223l8.135 14.173h16.271l8.136-14.173-8.136-14.173h-16.27l-8.136 14.173zM269.87 479.393l8.135 14.173h16.271l8.136-14.173-8.136-14.173h-16.27l-8.136 14.173zM294.28 465.223l8.135 14.173h16.271l8.136-14.173-8.136-14.173h-16.27l-8.136 14.173z" stroke-width="2.8" stroke-opacity=".075" stroke="#000" fill="#fff" opacity=".85"/><path d="M318.68 479.393l8.135 14.173h16.271l8.136-14.173-8.136-14.173h-16.27l-8.136 14.173zM343.09 465.223l8.135 14.173h16.271l8.136-14.173-8.136-14.173h-16.27zM367.5 479.393l8.135 14.173h16.271l8.136-14.173-8.136-14.173h-16.27l-8.136 14.173z" stroke-width="2.8" stroke-opacity=".075" stroke="#000" fill="#fff" opacity=".85"/><path d="M391.9 465.223l8.135 14.173h16.271l8.136-14.173-8.136-14.173h-16.27l-8.136 14.173zM416.31 479.393l8.135 14.173h16.271l8.136-14.173-8.136-14.173h-16.27l-8.136 14.173zM440.72 465.223l8.135 14.173h16.271l8.136-14.173-8.136-14.173h-16.27l-8.136 14.173z" stroke-width="2.8" stroke-opacity=".075" stroke="#000" fill="#fff" opacity=".85"/><path d="M465.12 479.393l8.135 14.173h16.271l8.136-14.173-8.136-14.173h-16.27l-8.136 14.173zM489.53 465.223l8.135 14.173h16.271l8.136-14.173-8.136-14.173h-16.27l-8.136 14.173zM513.94 479.393l8.135 14.173h16.271l8.136-14.173-8.136-14.173h-16.27l-8.136 14.173z" stroke-width="2.8" stroke-opacity=".075" stroke="#000" fill="#fff" opacity=".85"/><path d="M538.34 465.223l8.135 14.173h16.271l8.136-14.173-8.136-14.173h-16.27l-8.136 14.173zM562.75 479.393l8.135 14.173h16.271l8.136-14.173-8.136-14.173h-16.27l-8.136 14.173zM587.16 465.223l8.135 14.173h16.271l8.136-14.173-8.136-14.173h-16.27l-8.136 14.173z" stroke-width="2.8" stroke-opacity=".075" stroke="#000" fill="#fff" opacity=".85"/><path d="M611.56 479.393l8.135 14.173h16.271l8.136-14.173-8.136-14.173h-16.27l-8.136 14.173zM635.97 465.223l8.135 14.173h16.271l8.136-14.173-8.136-14.173h-16.27l-8.136 14.173z" stroke-width="2.8" stroke-opacity=".075" stroke="#000" fill="#fff" opacity=".85"/><path d="M660.37 479.393l8.135 14.173h16.271l8.136-14.173-8.136-14.173h-16.27l-8.136 14.173zM684.78 465.223l8.135 14.173h16.271l8.136-14.173-8.136-14.173h-16.27l-8.136 14.173zM709.19 479.393l8.135 14.173h16.271l8.136-14.173-8.136-14.173h-16.27l-8.136 14.173z" stroke-width="2.8" stroke-opacity=".075" stroke="#000" fill="#fff" opacity=".85"/><path d="M733.59 465.223l8.135 14.173h16.271l8.136-14.173-8.136-14.173h-16.27l-8.136 14.173zM758 479.393l8.135 14.173h16.271l8.136-14.173-8.136-14.173h-16.27L758 479.393zM782.41 465.223l8.135 14.173h16.271l8.136-14.173-8.136-14.173h-16.27l-8.136 14.173z" stroke-width="2.8" stroke-opacity=".075" stroke="#000" fill="#fff" opacity=".85"/><path d="M806.81 479.393l8.135 14.173h16.271l8.136-14.173-8.136-14.173h-16.27l-8.136 14.173zM831.22 465.223l8.135 14.173h16.271l8.136-14.173-8.136-14.173h-16.27l-8.136 14.173zM855.63 479.393l8.135 14.173h16.271l8.136-14.173-8.136-14.173h-16.27l-8.136 14.173z" stroke-width="2.8" stroke-opacity=".075" stroke="#000" fill="#fff" opacity=".85"/><path d="M880.03 465.223l8.135 14.173h16.271l8.136-14.173-8.136-14.173h-16.27l-8.136 14.173zM904.44 479.393l8.135 14.173h16.271l8.136-14.173-8.136-14.173h-16.27l-8.136 14.173zM1.4 493.563l8.135 14.173h16.271l8.136-14.173-8.136-14.173H9.536L1.4 493.563zM25.806 507.743l8.135 14.173h16.271l8.136-14.173-8.136-14.173h-16.27l-8.136 14.173zM50.213 493.563l8.135 14.173H74.62l8.136-14.173-8.136-14.173H58.35l-8.136 14.173zM74.619 507.743l8.135 14.173h16.271l8.136-14.173-8.136-14.173h-16.27l-8.136 14.173zM99.025 493.563l8.135 14.173h16.271l8.136-14.173-8.136-14.173h-16.27l-8.136 14.173zM123.43 507.743l8.135 14.173h16.271l8.136-14.173-8.136-14.173h-16.27l-8.136 14.173zM147.84 493.563l8.135 14.173h16.271l8.136-14.173-8.136-14.173h-16.27l-8.136 14.173z" stroke-width="2.8" stroke-opacity=".075" stroke="#000" fill="#fff" opacity=".85"/><path d="M172.24 507.743l8.135 14.173h16.271l8.136-14.173-8.136-14.173h-16.27l-8.136 14.173zM196.65 493.563l8.135 14.173h16.271l8.136-14.173-8.136-14.173h-16.27l-8.136 14.173zM221.06 507.743l8.135 14.173h16.271l8.136-14.173-8.136-14.173h-16.27l-8.136 14.173z" stroke-width="2.8" stroke-opacity=".075" stroke="#000" fill="#fff" opacity=".85"/><path d="M245.46 493.563l8.135 14.173h16.271l8.136-14.173-8.136-14.173h-16.27l-8.136 14.173zM269.87 507.743l8.135 14.173h16.271l8.136-14.173-8.136-14.173h-16.27l-8.136 14.173zM294.28 493.563l8.135 14.173h16.271l8.136-14.173-8.136-14.173h-16.27l-8.136 14.173z" stroke-width="2.8" stroke-opacity=".075" stroke="#000" fill="#fff" opacity=".85"/><path d="M318.68 507.743l8.135 14.173h16.271l8.136-14.173-8.136-14.173h-16.27l-8.136 14.173zM343.09 493.563l8.135 14.173h16.271l8.136-14.173-8.136-14.173h-16.27l-8.136 14.173zM367.5 507.743l8.135 14.173h16.271l8.136-14.173-8.136-14.173h-16.27l-8.136 14.173z" stroke-width="2.8" stroke-opacity=".075" stroke="#000" fill="#fff" opacity=".85"/><path d="M391.9 493.563l8.135 14.173h16.271l8.136-14.173-8.136-14.173h-16.27l-8.136 14.173zM416.31 507.743l8.135 14.173h16.271l8.136-14.173-8.136-14.173h-16.27l-8.136 14.173zM440.72 493.563l8.135 14.173h16.271l8.136-14.173-8.136-14.173h-16.27l-8.136 14.173z" stroke-width="2.8" stroke-opacity=".075" stroke="#000" fill="#fff" opacity=".85"/><path d="M465.12 507.743l8.135 14.173h16.271l8.136-14.173-8.136-14.173h-16.27l-8.136 14.173zM489.53 493.563l8.135 14.173h16.271l8.136-14.173-8.136-14.173h-16.27l-8.136 14.173zM513.94 507.743l8.135 14.173h16.271l8.136-14.173-8.136-14.173h-16.27l-8.136 14.173z" stroke-width="2.8" stroke-opacity=".075" stroke="#000" fill="#fff" opacity=".85"/><path d="M538.34 493.563l8.135 14.173h16.271l8.136-14.173-8.136-14.173h-16.27l-8.136 14.173zM562.75 507.743l8.135 14.173h16.271l8.136-14.173-8.136-14.173h-16.27l-8.136 14.173zM587.16 493.563l8.135 14.173h16.271l8.136-14.173-8.136-14.173h-16.27l-8.136 14.173z" stroke-width="2.8" stroke-opacity=".075" stroke="#000" fill="#fff" opacity=".85"/><path d="M611.56 507.743l8.135 14.173h16.271l8.136-14.173-8.136-14.173h-16.27l-8.136 14.173zM635.97 493.563l8.135 14.173h16.271l8.136-14.173-8.136-14.173h-16.27l-8.136 14.173z" stroke-width="2.8" stroke-opacity=".075" stroke="#000" fill="#fff" opacity=".85"/><path d="M660.37 507.743l8.135 14.173h16.271l8.136-14.173-8.136-14.173h-16.27l-8.136 14.173zM684.78 493.563l8.135 14.173h16.271l8.136-14.173-8.136-14.173h-16.27l-8.136 14.173zM709.19 507.743l8.135 14.173h16.271l8.136-14.173-8.136-14.173h-16.27l-8.136 14.173z" stroke-width="2.8" stroke-opacity=".075" stroke="#000" fill="#fff" opacity=".85"/><path d="M733.59 493.563l8.135 14.173h16.271l8.136-14.173-8.136-14.173h-16.27l-8.136 14.173zM758 507.743l8.135 14.173h16.271l8.136-14.173-8.136-14.173h-16.27L758 507.743zM782.41 493.563l8.135 14.173h16.271l8.136-14.173-8.136-14.173h-16.27l-8.136 14.173z" stroke-width="2.8" stroke-opacity=".075" stroke="#000" fill="#fff" opacity=".85"/><path d="M806.81 507.743l8.135 14.173h16.271l8.136-14.173-8.136-14.173h-16.27l-8.136 14.173zM831.22 493.563l8.135 14.173h16.271l8.136-14.173-8.136-14.173h-16.27l-8.136 14.173zM855.63 507.743l8.135 14.173h16.271l8.136-14.173-8.136-14.173h-16.27l-8.136 14.173z" stroke-width="2.8" stroke-opacity=".075" stroke="#000" fill="#fff" opacity=".85"/><path d="M880.03 493.563l8.135 14.173h16.271l8.136-14.173-8.136-14.173h-16.27l-8.136 14.173zM904.44 507.743l8.135 14.173h16.271l8.136-14.173-8.136-14.173h-16.27l-8.136 14.173zM1.4 521.913l8.135 14.173h16.271l8.136-14.173-8.136-14.173H9.536L1.4 521.913z" stroke-width="2.8" stroke-opacity=".075" stroke="#000" fill="#fff" opacity=".85"/><path d="M25.806 536.083l8.135 14.173h16.271l8.136-14.173-8.136-14.173h-16.27l-8.136 14.173z" stroke-width="2.8" stroke-opacity=".075" stroke="#000" fill="#fff" opacity=".85"/><path d="M50.213 521.913l8.135 14.173H74.62l8.136-14.173-8.136-14.173H58.35l-8.136 14.173z" stroke-width="2.8" stroke-opacity=".075" stroke="#000" fill="#fff" opacity=".85"/><path d="M74.619 536.083l8.135 14.173h16.271l8.136-14.173-8.136-14.173h-16.27l-8.136 14.173z" stroke-width="2.8" stroke-opacity=".075" stroke="#000" fill="#fff" opacity=".85"/><path d="M99.025 521.913l8.135 14.173h16.271l8.136-14.173-8.136-14.173h-16.27l-8.136 14.173z" stroke-width="2.8" stroke-opacity=".075" stroke="#000" fill="#fff" opacity=".85"/><path d="M123.43 536.083l8.135 14.173h16.271l8.136-14.173-8.136-14.173h-16.27l-8.136 14.173zM147.84 521.913l8.135 14.173h16.271l8.136-14.173-8.136-14.173h-16.27l-8.136 14.173z" stroke-width="2.8" stroke-opacity=".075" stroke="#000" fill="#fff" opacity=".85"/><path d="M172.24 536.083l8.135 14.173h16.271l8.136-14.173-8.136-14.173h-16.27l-8.136 14.173zM196.65 521.913l8.135 14.173h16.271l8.136-14.173-8.136-14.173h-16.27l-8.136 14.173zM221.06 536.083l8.135 14.173h16.271l8.136-14.173-8.136-14.173h-16.27l-8.136 14.173z" stroke-width="2.8" stroke-opacity=".075" stroke="#000" fill="#fff" opacity=".85"/><path d="M245.46 521.913l8.135 14.173h16.271l8.136-14.173-8.136-14.173h-16.27l-8.136 14.173zM269.87 536.083l8.135 14.173h16.271l8.136-14.173-8.136-14.173h-16.27l-8.136 14.173zM294.28 521.913l8.135 14.173h16.271l8.136-14.173-8.136-14.173h-16.27l-8.136 14.173z" stroke-width="2.8" stroke-opacity=".075" stroke="#000" fill="#fff" opacity=".85"/><path d="M318.68 536.083l8.135 14.173h16.271l8.136-14.173-8.136-14.173h-16.27l-8.136 14.173zM343.09 521.913l8.135 14.173h16.271l8.136-14.173-8.136-14.173h-16.27l-8.136 14.173zM367.5 536.083l8.135 14.173h16.271l8.136-14.173-8.136-14.173h-16.27l-8.136 14.173z" stroke-width="2.8" stroke-opacity=".075" stroke="#000" fill="#fff" opacity=".85"/><path d="M391.9 521.913l8.135 14.173h16.271l8.136-14.173-8.136-14.173h-16.27l-8.136 14.173zM416.31 536.083l8.135 14.173h16.271l8.136-14.173-8.136-14.173h-16.27l-8.136 14.173zM440.72 521.913l8.135 14.173h16.271l8.136-14.173-8.136-14.173h-16.27l-8.136 14.173z" stroke-width="2.8" stroke-opacity=".075" stroke="#000" fill="#fff" opacity=".85"/><path d="M465.12 536.083l8.135 14.173h16.271l8.136-14.173-8.136-14.173h-16.27l-8.136 14.173zM489.53 521.913l8.135 14.173h16.271l8.136-14.173-8.136-14.173h-16.27l-8.136 14.173zM513.94 536.083l8.135 14.173h16.271l8.136-14.173-8.136-14.173h-16.27l-8.136 14.173z" stroke-width="2.8" stroke-opacity=".075" stroke="#000" fill="#fff" opacity=".85"/><path d="M538.34 521.913l8.135 14.173h16.271l8.136-14.173-8.136-14.173h-16.27l-8.136 14.173zM562.75 536.083l8.135 14.173h16.271l8.136-14.173-8.136-14.173h-16.27l-8.136 14.173zM587.16 521.913l8.135 14.173h16.271l8.136-14.173-8.136-14.173h-16.27l-8.136 14.173z" stroke-width="2.8" stroke-opacity=".075" stroke="#000" fill="#fff" opacity=".85"/><path d="M611.56 536.083l8.135 14.173h16.271l8.136-14.173-8.136-14.173h-16.27l-8.136 14.173zM635.97 521.913l8.135 14.173h16.271l8.136-14.173-8.136-14.173h-16.27l-8.136 14.173z" stroke-width="2.8" stroke-opacity=".075" stroke="#000" fill="#fff" opacity=".85"/><path d="M660.37 536.083l8.135 14.173h16.271l8.136-14.173-8.136-14.173h-16.27l-8.136 14.173zM684.78 521.913l8.135 14.173h16.271l8.136-14.173-8.136-14.173h-16.27l-8.136 14.173zM709.19 536.083l8.135 14.173h16.271l8.136-14.173-8.136-14.173h-16.27l-8.136 14.173z" stroke-width="2.8" stroke-opacity=".075" stroke="#000" fill="#fff" opacity=".85"/><path d="M733.59 521.913l8.135 14.173h16.271l8.136-14.173-8.136-14.173h-16.27l-8.136 14.173zM758 536.083l8.135 14.173h16.271l8.136-14.173-8.136-14.173h-16.27L758 536.083zM782.41 521.913l8.135 14.173h16.271l8.136-14.173-8.136-14.173h-16.27l-8.136 14.173z" stroke-width="2.8" stroke-opacity=".075" stroke="#000" fill="#fff" opacity=".85"/><path d="M806.81 536.083l8.135 14.173h16.271l8.136-14.173-8.136-14.173h-16.27l-8.136 14.173zM831.22 521.913l8.135 14.173h16.271l8.136-14.173-8.136-14.173h-16.27l-8.136 14.173zM855.63 536.083l8.135 14.173h16.271l8.136-14.173-8.136-14.173h-16.27l-8.136 14.173z" stroke-width="2.8" stroke-opacity=".075" stroke="#000" fill="#fff" opacity=".85"/><path d="M880.03 521.913l8.135 14.173h16.271l8.136-14.173-8.136-14.173h-16.27l-8.136 14.173zM904.44 536.083l8.135 14.173h16.271l8.136-14.173-8.136-14.173h-16.27l-8.136 14.173z" stroke-width="2.8" stroke-opacity=".075" stroke="#000" fill="#fff" opacity=".85"/></svg>